<svg xmlns="http://www.w3.org/2000/svg" xmlns:xlink="http://www.w3.org/1999/xlink" width="500" zoomAndPan="magnify" viewBox="0 0 375 374.999991" height="500" preserveAspectRatio="xMidYMid meet" version="1.0"><defs><g/></defs><g fill="#910a0a" fill-opacity="0.4"><g transform="translate(109.76631, 204.859223)"><g><path d="M 6.46875 -9.828125 C 5.988281 -9.828125 5.5625 -9.734375 5.1875 -9.546875 C 4.820312 -9.367188 4.515625 -9.101562 4.265625 -8.75 C 4.023438 -8.40625 3.835938 -7.988281 3.703125 -7.5 C 3.578125 -7.007812 3.515625 -6.453125 3.515625 -5.828125 C 3.515625 -5.003906 3.617188 -4.296875 3.828125 -3.703125 C 4.035156 -3.117188 4.351562 -2.671875 4.78125 -2.359375 C 5.21875 -2.054688 5.78125 -1.90625 6.46875 -1.90625 C 6.9375 -1.90625 7.410156 -1.957031 7.890625 -2.0625 C 8.367188 -2.175781 8.890625 -2.332031 9.453125 -2.53125 L 9.453125 -0.4375 C 8.929688 -0.226562 8.421875 -0.078125 7.921875 0.015625 C 7.421875 0.109375 6.859375 0.15625 6.234375 0.15625 C 5.023438 0.15625 4.03125 -0.09375 3.25 -0.59375 C 2.46875 -1.09375 1.890625 -1.789062 1.515625 -2.6875 C 1.140625 -3.59375 0.953125 -4.644531 0.953125 -5.84375 C 0.953125 -6.738281 1.070312 -7.554688 1.3125 -8.296875 C 1.550781 -9.035156 1.90625 -9.671875 2.375 -10.203125 C 2.84375 -10.742188 3.414062 -11.160156 4.09375 -11.453125 C 4.78125 -11.753906 5.570312 -11.90625 6.46875 -11.90625 C 7.039062 -11.90625 7.617188 -11.832031 8.203125 -11.6875 C 8.796875 -11.539062 9.359375 -11.335938 9.890625 -11.078125 L 9.09375 -9.046875 C 8.65625 -9.253906 8.210938 -9.4375 7.765625 -9.59375 C 7.328125 -9.75 6.894531 -9.828125 6.46875 -9.828125 Z M 6.46875 -9.828125 "/></g></g></g><g fill="#910a0a" fill-opacity="0.4"><g transform="translate(133.404809, 204.859223)"><g><path d="M 8.65625 0 L 7.8125 -2.796875 L 3.53125 -2.796875 L 2.6875 0 L 0 0 L 4.140625 -11.78125 L 7.1875 -11.78125 L 11.34375 0 Z M 7.21875 -4.875 L 6.359375 -7.609375 C 6.304688 -7.785156 6.234375 -8.015625 6.140625 -8.296875 C 6.054688 -8.585938 5.96875 -8.878906 5.875 -9.171875 C 5.789062 -9.472656 5.722656 -9.734375 5.671875 -9.953125 C 5.617188 -9.734375 5.546875 -9.460938 5.453125 -9.140625 C 5.359375 -8.816406 5.269531 -8.507812 5.1875 -8.21875 C 5.101562 -7.9375 5.039062 -7.734375 5 -7.609375 L 4.15625 -4.875 Z M 7.21875 -4.875 "/></g></g></g><g fill="#910a0a" fill-opacity="0.4"><g transform="translate(157.910283, 204.859223)"><g><path d="M 4.890625 -11.734375 C 5.960938 -11.734375 6.84375 -11.601562 7.53125 -11.34375 C 8.226562 -11.09375 8.742188 -10.707031 9.078125 -10.1875 C 9.410156 -9.664062 9.578125 -9.007812 9.578125 -8.21875 C 9.578125 -7.6875 9.472656 -7.21875 9.265625 -6.8125 C 9.066406 -6.414062 8.800781 -6.078125 8.46875 -5.796875 C 8.144531 -5.515625 7.789062 -5.285156 7.40625 -5.109375 L 10.84375 0 L 8.09375 0 L 5.296875 -4.5 L 3.96875 -4.5 L 3.96875 0 L 1.484375 0 L 1.484375 -11.734375 Z M 4.71875 -9.703125 L 3.96875 -9.703125 L 3.96875 -6.53125 L 4.765625 -6.53125 C 5.585938 -6.53125 6.175781 -6.664062 6.53125 -6.9375 C 6.894531 -7.21875 7.078125 -7.625 7.078125 -8.15625 C 7.078125 -8.707031 6.882812 -9.101562 6.5 -9.34375 C 6.113281 -9.582031 5.519531 -9.703125 4.71875 -9.703125 Z M 4.71875 -9.703125 "/></g></g></g><g fill="#910a0a" fill-opacity="0.4"><g transform="translate(181.926066, 204.859223)"><g><path d="M 15.890625 -11.734375 L 12.90625 0 L 10.078125 0 L 8.484375 -6.171875 C 8.453125 -6.285156 8.410156 -6.460938 8.359375 -6.703125 C 8.304688 -6.941406 8.25 -7.203125 8.1875 -7.484375 C 8.125 -7.773438 8.070312 -8.046875 8.03125 -8.296875 C 7.988281 -8.554688 7.957031 -8.757812 7.9375 -8.90625 C 7.914062 -8.757812 7.882812 -8.5625 7.84375 -8.3125 C 7.800781 -8.0625 7.75 -7.789062 7.6875 -7.5 C 7.632812 -7.21875 7.582031 -6.953125 7.53125 -6.703125 C 7.476562 -6.460938 7.4375 -6.273438 7.40625 -6.140625 L 5.8125 0 L 3 0 L 0 -11.734375 L 2.453125 -11.734375 L 3.953125 -5.328125 C 3.992188 -5.140625 4.039062 -4.910156 4.09375 -4.640625 C 4.15625 -4.367188 4.210938 -4.085938 4.265625 -3.796875 C 4.316406 -3.503906 4.363281 -3.222656 4.40625 -2.953125 C 4.457031 -2.679688 4.492188 -2.445312 4.515625 -2.25 C 4.546875 -2.457031 4.582031 -2.695312 4.625 -2.96875 C 4.664062 -3.238281 4.710938 -3.515625 4.765625 -3.796875 C 4.816406 -4.078125 4.867188 -4.335938 4.921875 -4.578125 C 4.972656 -4.816406 5.019531 -5.007812 5.0625 -5.15625 L 6.78125 -11.734375 L 9.125 -11.734375 L 10.828125 -5.15625 C 10.867188 -5.007812 10.914062 -4.816406 10.96875 -4.578125 C 11.019531 -4.335938 11.070312 -4.070312 11.125 -3.78125 C 11.175781 -3.5 11.222656 -3.222656 11.265625 -2.953125 C 11.316406 -2.679688 11.351562 -2.445312 11.375 -2.25 C 11.40625 -2.519531 11.453125 -2.84375 11.515625 -3.21875 C 11.585938 -3.601562 11.660156 -3.984375 11.734375 -4.359375 C 11.816406 -4.742188 11.890625 -5.066406 11.953125 -5.328125 L 13.4375 -11.734375 Z M 15.890625 -11.734375 "/></g></g></g><g fill="#910a0a" fill-opacity="0.4"><g transform="translate(210.983155, 204.859223)"><g><path d="M 8.65625 0 L 7.8125 -2.796875 L 3.53125 -2.796875 L 2.6875 0 L 0 0 L 4.140625 -11.78125 L 7.1875 -11.78125 L 11.34375 0 Z M 7.21875 -4.875 L 6.359375 -7.609375 C 6.304688 -7.785156 6.234375 -8.015625 6.140625 -8.296875 C 6.054688 -8.585938 5.96875 -8.878906 5.875 -9.171875 C 5.789062 -9.472656 5.722656 -9.734375 5.671875 -9.953125 C 5.617188 -9.734375 5.546875 -9.460938 5.453125 -9.140625 C 5.359375 -8.816406 5.269531 -8.507812 5.1875 -8.21875 C 5.101562 -7.9375 5.039062 -7.734375 5 -7.609375 L 4.15625 -4.875 Z M 7.21875 -4.875 "/></g></g></g><g fill="#910a0a" fill-opacity="0.4"><g transform="translate(235.488631, 204.859223)"><g><path d="M 8.40625 -3.265625 C 8.40625 -2.566406 8.234375 -1.957031 7.890625 -1.4375 C 7.554688 -0.925781 7.066406 -0.53125 6.421875 -0.25 C 5.773438 0.0195312 4.992188 0.15625 4.078125 0.15625 C 3.671875 0.15625 3.269531 0.128906 2.875 0.078125 C 2.488281 0.0234375 2.117188 -0.0507812 1.765625 -0.15625 C 1.410156 -0.257812 1.070312 -0.390625 0.75 -0.546875 L 0.75 -2.859375 C 1.3125 -2.609375 1.890625 -2.382812 2.484375 -2.1875 C 3.085938 -1.988281 3.679688 -1.890625 4.265625 -1.890625 C 4.671875 -1.890625 5 -1.941406 5.25 -2.046875 C 5.5 -2.160156 5.679688 -2.3125 5.796875 -2.5 C 5.910156 -2.6875 5.96875 -2.898438 5.96875 -3.140625 C 5.96875 -3.429688 5.867188 -3.679688 5.671875 -3.890625 C 5.472656 -4.097656 5.195312 -4.289062 4.84375 -4.46875 C 4.5 -4.65625 4.113281 -4.851562 3.6875 -5.0625 C 3.414062 -5.1875 3.117188 -5.34375 2.796875 -5.53125 C 2.472656 -5.71875 2.164062 -5.941406 1.875 -6.203125 C 1.582031 -6.472656 1.34375 -6.800781 1.15625 -7.1875 C 0.976562 -7.570312 0.890625 -8.03125 0.890625 -8.5625 C 0.890625 -9.257812 1.050781 -9.859375 1.375 -10.359375 C 1.695312 -10.859375 2.15625 -11.238281 2.75 -11.5 C 3.34375 -11.769531 4.046875 -11.90625 4.859375 -11.90625 C 5.472656 -11.90625 6.054688 -11.832031 6.609375 -11.6875 C 7.160156 -11.550781 7.738281 -11.347656 8.34375 -11.078125 L 7.546875 -9.140625 C 7.003906 -9.359375 6.519531 -9.523438 6.09375 -9.640625 C 5.664062 -9.765625 5.226562 -9.828125 4.78125 -9.828125 C 4.46875 -9.828125 4.203125 -9.773438 3.984375 -9.671875 C 3.765625 -9.578125 3.597656 -9.441406 3.484375 -9.265625 C 3.378906 -9.085938 3.328125 -8.878906 3.328125 -8.640625 C 3.328125 -8.367188 3.40625 -8.132812 3.5625 -7.9375 C 3.726562 -7.75 3.972656 -7.566406 4.296875 -7.390625 C 4.628906 -7.210938 5.039062 -7.007812 5.53125 -6.78125 C 6.132812 -6.488281 6.648438 -6.1875 7.078125 -5.875 C 7.503906 -5.570312 7.832031 -5.210938 8.0625 -4.796875 C 8.289062 -4.390625 8.40625 -3.878906 8.40625 -3.265625 Z M 8.40625 -3.265625 "/></g></g></g><g fill="#910a0a" fill-opacity="0.4"><g transform="translate(257.706252, 204.859223)"><g><path d="M 11.09375 0 L 8.609375 0 L 8.609375 -5.0625 L 3.96875 -5.0625 L 3.96875 0 L 1.484375 0 L 1.484375 -11.734375 L 3.96875 -11.734375 L 3.96875 -7.140625 L 8.609375 -7.140625 L 8.609375 -11.734375 L 11.09375 -11.734375 Z M 11.09375 0 "/></g></g></g><g fill="#910a0a" fill-opacity="1"><g transform="translate(109.039177, 204.132088)"><g><path d="M 6.46875 -9.828125 C 5.988281 -9.828125 5.5625 -9.734375 5.1875 -9.546875 C 4.820312 -9.367188 4.515625 -9.101562 4.265625 -8.75 C 4.023438 -8.40625 3.835938 -7.988281 3.703125 -7.5 C 3.578125 -7.007812 3.515625 -6.453125 3.515625 -5.828125 C 3.515625 -5.003906 3.617188 -4.296875 3.828125 -3.703125 C 4.035156 -3.117188 4.351562 -2.671875 4.78125 -2.359375 C 5.21875 -2.054688 5.78125 -1.90625 6.46875 -1.90625 C 6.9375 -1.90625 7.410156 -1.957031 7.890625 -2.0625 C 8.367188 -2.175781 8.890625 -2.332031 9.453125 -2.53125 L 9.453125 -0.4375 C 8.929688 -0.226562 8.421875 -0.078125 7.921875 0.015625 C 7.421875 0.109375 6.859375 0.15625 6.234375 0.15625 C 5.023438 0.15625 4.03125 -0.09375 3.25 -0.59375 C 2.46875 -1.09375 1.890625 -1.789062 1.515625 -2.6875 C 1.140625 -3.59375 0.953125 -4.644531 0.953125 -5.84375 C 0.953125 -6.738281 1.070312 -7.554688 1.3125 -8.296875 C 1.550781 -9.035156 1.90625 -9.671875 2.375 -10.203125 C 2.84375 -10.742188 3.414062 -11.160156 4.09375 -11.453125 C 4.78125 -11.753906 5.570312 -11.90625 6.46875 -11.90625 C 7.039062 -11.90625 7.617188 -11.832031 8.203125 -11.6875 C 8.796875 -11.539062 9.359375 -11.335938 9.890625 -11.078125 L 9.09375 -9.046875 C 8.65625 -9.253906 8.210938 -9.4375 7.765625 -9.59375 C 7.328125 -9.75 6.894531 -9.828125 6.46875 -9.828125 Z M 6.46875 -9.828125 "/></g></g></g><g fill="#910a0a" fill-opacity="1"><g transform="translate(132.677676, 204.132088)"><g><path d="M 8.65625 0 L 7.8125 -2.796875 L 3.53125 -2.796875 L 2.6875 0 L 0 0 L 4.140625 -11.78125 L 7.1875 -11.78125 L 11.34375 0 Z M 7.21875 -4.875 L 6.359375 -7.609375 C 6.304688 -7.785156 6.234375 -8.015625 6.140625 -8.296875 C 6.054688 -8.585938 5.96875 -8.878906 5.875 -9.171875 C 5.789062 -9.472656 5.722656 -9.734375 5.671875 -9.953125 C 5.617188 -9.734375 5.546875 -9.460938 5.453125 -9.140625 C 5.359375 -8.816406 5.269531 -8.507812 5.1875 -8.21875 C 5.101562 -7.9375 5.039062 -7.734375 5 -7.609375 L 4.15625 -4.875 Z M 7.21875 -4.875 "/></g></g></g><g fill="#910a0a" fill-opacity="1"><g transform="translate(157.183149, 204.132088)"><g><path d="M 4.890625 -11.734375 C 5.960938 -11.734375 6.84375 -11.601562 7.53125 -11.34375 C 8.226562 -11.09375 8.742188 -10.707031 9.078125 -10.1875 C 9.410156 -9.664062 9.578125 -9.007812 9.578125 -8.21875 C 9.578125 -7.6875 9.472656 -7.21875 9.265625 -6.8125 C 9.066406 -6.414062 8.800781 -6.078125 8.46875 -5.796875 C 8.144531 -5.515625 7.789062 -5.285156 7.40625 -5.109375 L 10.84375 0 L 8.09375 0 L 5.296875 -4.5 L 3.96875 -4.5 L 3.96875 0 L 1.484375 0 L 1.484375 -11.734375 Z M 4.71875 -9.703125 L 3.96875 -9.703125 L 3.96875 -6.53125 L 4.765625 -6.53125 C 5.585938 -6.53125 6.175781 -6.664062 6.53125 -6.9375 C 6.894531 -7.21875 7.078125 -7.625 7.078125 -8.15625 C 7.078125 -8.707031 6.882812 -9.101562 6.5 -9.34375 C 6.113281 -9.582031 5.519531 -9.703125 4.71875 -9.703125 Z M 4.71875 -9.703125 "/></g></g></g><g fill="#910a0a" fill-opacity="1"><g transform="translate(181.198933, 204.132088)"><g><path d="M 15.890625 -11.734375 L 12.90625 0 L 10.078125 0 L 8.484375 -6.171875 C 8.453125 -6.285156 8.410156 -6.460938 8.359375 -6.703125 C 8.304688 -6.941406 8.25 -7.203125 8.1875 -7.484375 C 8.125 -7.773438 8.070312 -8.046875 8.03125 -8.296875 C 7.988281 -8.554688 7.957031 -8.757812 7.9375 -8.90625 C 7.914062 -8.757812 7.882812 -8.5625 7.84375 -8.3125 C 7.800781 -8.0625 7.75 -7.789062 7.6875 -7.5 C 7.632812 -7.21875 7.582031 -6.953125 7.53125 -6.703125 C 7.476562 -6.460938 7.4375 -6.273438 7.40625 -6.140625 L 5.8125 0 L 3 0 L 0 -11.734375 L 2.453125 -11.734375 L 3.953125 -5.328125 C 3.992188 -5.140625 4.039062 -4.910156 4.09375 -4.640625 C 4.15625 -4.367188 4.210938 -4.085938 4.265625 -3.796875 C 4.316406 -3.503906 4.363281 -3.222656 4.40625 -2.953125 C 4.457031 -2.679688 4.492188 -2.445312 4.515625 -2.25 C 4.546875 -2.457031 4.582031 -2.695312 4.625 -2.96875 C 4.664062 -3.238281 4.710938 -3.515625 4.765625 -3.796875 C 4.816406 -4.078125 4.867188 -4.335938 4.921875 -4.578125 C 4.972656 -4.816406 5.019531 -5.007812 5.0625 -5.15625 L 6.78125 -11.734375 L 9.125 -11.734375 L 10.828125 -5.15625 C 10.867188 -5.007812 10.914062 -4.816406 10.96875 -4.578125 C 11.019531 -4.335938 11.070312 -4.070312 11.125 -3.78125 C 11.175781 -3.5 11.222656 -3.222656 11.265625 -2.953125 C 11.316406 -2.679688 11.351562 -2.445312 11.375 -2.25 C 11.40625 -2.519531 11.453125 -2.84375 11.515625 -3.21875 C 11.585938 -3.601562 11.660156 -3.984375 11.734375 -4.359375 C 11.816406 -4.742188 11.890625 -5.066406 11.953125 -5.328125 L 13.4375 -11.734375 Z M 15.890625 -11.734375 "/></g></g></g><g fill="#910a0a" fill-opacity="1"><g transform="translate(210.256021, 204.132088)"><g><path d="M 8.65625 0 L 7.8125 -2.796875 L 3.53125 -2.796875 L 2.6875 0 L 0 0 L 4.140625 -11.78125 L 7.1875 -11.78125 L 11.34375 0 Z M 7.21875 -4.875 L 6.359375 -7.609375 C 6.304688 -7.785156 6.234375 -8.015625 6.140625 -8.296875 C 6.054688 -8.585938 5.96875 -8.878906 5.875 -9.171875 C 5.789062 -9.472656 5.722656 -9.734375 5.671875 -9.953125 C 5.617188 -9.734375 5.546875 -9.460938 5.453125 -9.140625 C 5.359375 -8.816406 5.269531 -8.507812 5.1875 -8.21875 C 5.101562 -7.9375 5.039062 -7.734375 5 -7.609375 L 4.15625 -4.875 Z M 7.21875 -4.875 "/></g></g></g><g fill="#910a0a" fill-opacity="1"><g transform="translate(234.761497, 204.132088)"><g><path d="M 8.40625 -3.265625 C 8.40625 -2.566406 8.234375 -1.957031 7.890625 -1.4375 C 7.554688 -0.925781 7.066406 -0.53125 6.421875 -0.25 C 5.773438 0.0195312 4.992188 0.15625 4.078125 0.15625 C 3.671875 0.15625 3.269531 0.128906 2.875 0.078125 C 2.488281 0.0234375 2.117188 -0.0507812 1.765625 -0.15625 C 1.410156 -0.257812 1.070312 -0.390625 0.75 -0.546875 L 0.75 -2.859375 C 1.3125 -2.609375 1.890625 -2.382812 2.484375 -2.1875 C 3.085938 -1.988281 3.679688 -1.890625 4.265625 -1.890625 C 4.671875 -1.890625 5 -1.941406 5.25 -2.046875 C 5.5 -2.160156 5.679688 -2.3125 5.796875 -2.5 C 5.910156 -2.6875 5.96875 -2.898438 5.96875 -3.140625 C 5.96875 -3.429688 5.867188 -3.679688 5.671875 -3.890625 C 5.472656 -4.097656 5.195312 -4.289062 4.84375 -4.46875 C 4.5 -4.65625 4.113281 -4.851562 3.6875 -5.0625 C 3.414062 -5.1875 3.117188 -5.34375 2.796875 -5.53125 C 2.472656 -5.71875 2.164062 -5.941406 1.875 -6.203125 C 1.582031 -6.472656 1.34375 -6.800781 1.15625 -7.1875 C 0.976562 -7.570312 0.890625 -8.03125 0.890625 -8.5625 C 0.890625 -9.257812 1.050781 -9.859375 1.375 -10.359375 C 1.695312 -10.859375 2.15625 -11.238281 2.75 -11.5 C 3.34375 -11.769531 4.046875 -11.90625 4.859375 -11.90625 C 5.472656 -11.90625 6.054688 -11.832031 6.609375 -11.6875 C 7.160156 -11.550781 7.738281 -11.347656 8.34375 -11.078125 L 7.546875 -9.140625 C 7.003906 -9.359375 6.519531 -9.523438 6.09375 -9.640625 C 5.664062 -9.765625 5.226562 -9.828125 4.78125 -9.828125 C 4.46875 -9.828125 4.203125 -9.773438 3.984375 -9.671875 C 3.765625 -9.578125 3.597656 -9.441406 3.484375 -9.265625 C 3.378906 -9.085938 3.328125 -8.878906 3.328125 -8.640625 C 3.328125 -8.367188 3.40625 -8.132812 3.5625 -7.9375 C 3.726562 -7.75 3.972656 -7.566406 4.296875 -7.390625 C 4.628906 -7.210938 5.039062 -7.007812 5.53125 -6.78125 C 6.132812 -6.488281 6.648438 -6.1875 7.078125 -5.875 C 7.503906 -5.570312 7.832031 -5.210938 8.0625 -4.796875 C 8.289062 -4.390625 8.40625 -3.878906 8.40625 -3.265625 Z M 8.40625 -3.265625 "/></g></g></g><g fill="#910a0a" fill-opacity="1"><g transform="translate(256.979118, 204.132088)"><g><path d="M 11.09375 0 L 8.609375 0 L 8.609375 -5.0625 L 3.96875 -5.0625 L 3.96875 0 L 1.484375 0 L 1.484375 -11.734375 L 3.96875 -11.734375 L 3.96875 -7.140625 L 8.609375 -7.140625 L 8.609375 -11.734375 L 11.09375 -11.734375 Z M 11.09375 0 "/></g></g></g><g fill="#910a0a" fill-opacity="0.4"><g transform="translate(67.466322, 202.868932)"><g><path d="M -16.65625 -18.984375 L -19.40625 -20.796875 L -22.1875 -16.5625 L -18.53125 -14.171875 L -10.5625 -14.5 L -10.234375 -16.71875 Z M -12.359375 -25.546875 L -15.109375 -27.359375 L -17.890625 -23.109375 L -14.234375 -20.71875 L -6.265625 -21.046875 L -5.9375 -23.265625 Z M -12.359375 -25.546875 "/></g></g></g><g fill="#910a0a" fill-opacity="0.4"><g transform="translate(75.760701, 189.356652)"><g><path d="M 3.734375 -30.546875 L -3.34375 -36.8125 L -19.03125 -19.0625 L -14.625 -15.171875 L -12.125 -16.84375 L -1.90625 -7.828125 L -3.265625 -5.125 L 1.109375 -1.265625 L 16.828125 -19.046875 L 9.78125 -25.28125 L 6.015625 -21.03125 L 7.609375 -18.59375 L 3.328125 -13.75 L -0.171875 -16.84375 L 4.109375 -21.6875 L 0.65625 -24.734375 L -3.625 -19.890625 L -6.890625 -22.765625 L -2.609375 -27.609375 L 0 -26.328125 Z M 3.734375 -30.546875 "/></g></g></g><g fill="#910a0a" fill-opacity="0.4"><g transform="translate(92.023114, 170.710654)"><g><path d="M -0.859375 -26.265625 L -4.53125 -30.84375 L -15.53125 -22 L -11.859375 -17.421875 L -9.09375 -18.65625 L -0.546875 -8.046875 L -2.34375 -5.609375 L 1.3125 -1.0625 L 19.765625 -15.90625 L 13.34375 -23.890625 L 8.921875 -20.328125 L 10.59375 -17.015625 L 5.640625 -13.015625 L -2.90625 -23.625 Z M -0.859375 -26.265625 "/></g></g></g><g fill="#910a0a" fill-opacity="0.4"><g transform="translate(110.927831, 155.804043)"><g/></g></g><g fill="#910a0a" fill-opacity="0.4"><g transform="translate(121.059409, 148.329664)"><g><path d="M 24.78125 -32.625 L 22.578125 -38.0625 L 11.671875 -33.671875 L 10.484375 -24.3125 L 3.203125 -30.265625 L -8.484375 -25.546875 L -6.28125 -20.109375 L -3.28125 -20.484375 L 1.8125 -7.84375 L -0.609375 -6.03125 L 1.5625 -0.625 L 14.640625 -5.90625 L 12.46875 -11.3125 L 8.75 -10.640625 L 5.3125 -19.15625 L 12.890625 -13.3125 L 15.671875 -14.4375 L 17.0625 -23.90625 L 20.5 -15.390625 L 17.375 -13.28125 L 19.546875 -7.875 L 32.625 -13.140625 L 30.453125 -18.546875 L 27.515625 -18.203125 L 22.421875 -30.84375 Z M 24.78125 -32.625 "/></g></g></g><g fill="#910a0a" fill-opacity="0.4"><g transform="translate(152.895217, 135.746739)"><g><path d="M 21.890625 -21.625 L 20.21875 -30.9375 L -3.09375 -26.75 L -2.0625 -20.96875 L 0.953125 -20.734375 L 3.359375 -7.3125 L 0.625 -6.03125 L 1.65625 -0.296875 L 25.015625 -4.5 L 23.359375 -13.765625 L 17.765625 -12.75 L 17.5 -9.859375 L 11.140625 -8.71875 L 10.3125 -13.328125 L 16.671875 -14.46875 L 15.859375 -19 L 9.5 -17.859375 L 8.734375 -22.140625 L 15.09375 -23.28125 L 16.34375 -20.625 Z M 21.890625 -21.625 "/></g></g></g><g fill="#910a0a" fill-opacity="0.4"><g transform="translate(177.137043, 131.116564)"><g><path d="M 27.4375 -21.015625 L 27.4375 -26.890625 L 17.6875 -26.890625 L 17.6875 -21.015625 L 19.328125 -20.25 L 16.296875 -16.171875 L 12.921875 -20.25 L 15 -21.015625 L 15 -26.890625 L 0.828125 -26.875 L 0.828125 -21 L 3.984375 -20.234375 L 9.125 -14.046875 L 2.71875 -6.609375 L 0.6875 -5.828125 L 0.6875 0 L 10.5625 0 L 10.5625 -5.828125 L 8.71875 -6.609375 L 11.90625 -10.90625 L 15.359375 -6.625 L 13.171875 -5.84375 L 13.171875 -0.015625 L 27.640625 -0.015625 L 27.640625 -5.84375 L 24.71875 -6.625 L 19.140625 -13.0625 L 25.328125 -20.25 Z M 27.4375 -21.015625 "/></g></g></g><g fill="#910a0a" fill-opacity="0.4"><g transform="translate(203.299367, 131.28689)"><g><path d="M 19.3125 -18.3125 L 20.203125 -24.125 L 6.609375 -26.1875 L 5.71875 -20.375 L 8.5 -19.171875 L 6.453125 -5.703125 L 3.453125 -5.375 L 2.578125 0.390625 L 16.171875 2.453125 L 17.046875 -3.3125 L 14.265625 -4.515625 L 16.3125 -17.984375 Z M 19.3125 -18.3125 "/></g></g></g><g fill="#910a0a" fill-opacity="0.4"><g transform="translate(220.164912, 133.454342)"><g><path d="M 29.4375 -14.625 L 25.703125 -20.328125 L 15.078125 -23.53125 L 7.9375 -20.5 L 3.09375 -4.4375 L 7.546875 2.265625 L 17.71875 5.34375 C 18.78125 4.894531 19.859375 4.441406 20.953125 3.984375 C 22.054688 3.523438 23.15625 3.054688 24.25 2.578125 L 25.65625 -2.078125 L 18.78125 -4.15625 L 17.234375 -1.703125 L 12.203125 -3.21875 L 11.359375 -4.4375 L 14.765625 -15.75 L 16.109375 -16.28125 L 21.171875 -14.75 L 21.09375 -11.84375 L 27.96875 -9.765625 Z M 29.4375 -14.625 "/></g></g></g><g fill="#910a0a" fill-opacity="0.4"><g transform="translate(242.627954, 139.81748)"><g><path d="M 25.96875 5.78125 L 30.515625 -14.625 L 16.6875 -21.65625 L 14.03125 -16.421875 L 15.90625 -14.609375 L 6.25 -4.234375 L 3.25 -4.890625 L 0.609375 0.3125 L 10.875 5.53125 L 13.515625 0.328125 L 12.203125 -1.203125 L 13.875 -3.03125 L 19.03125 -0.40625 L 18.578125 2.03125 L 16.40625 1.796875 L 13.765625 7 L 25.90625 13.171875 L 28.546875 7.96875 Z M 21.171875 -11.25 L 19.984375 -5.09375 L 16.9375 -6.640625 Z M 21.171875 -11.25 "/></g></g></g><g fill="#910a0a" fill-opacity="0.4"><g transform="translate(267.02268, 151.839061)"><g><path d="M 30.984375 -9.8125 L 27.34375 -5.1875 L 29.171875 -2.796875 L 24.390625 3.28125 L 27 -12.953125 L 17.953125 -20.078125 L 14.3125 -15.453125 L 16.140625 -13.0625 L 7.71875 -2.34375 L 4.9375 -3.53125 L 1.328125 1.046875 L 11.203125 8.8125 L 14.8125 4.234375 L 13 1.8125 L 18.15625 -4.765625 L 15.859375 12.484375 L 21.96875 17.28125 L 34.484375 1.375 L 37.234375 2.578125 L 40.875 -2.046875 Z M 30.984375 -9.8125 "/></g></g></g><g fill="#910a0a" fill-opacity="0.4"><g transform="translate(289.827269, 169.817137)"><g><path d="M 19.625 15.109375 L 32.703125 3.640625 L 32.53125 -3.65625 L 25.015625 -12.234375 L 17.796875 -13.359375 L 4.71875 -1.890625 L 4.9375 5.625 L 12.171875 13.890625 C 13.410156 14.097656 14.65625 14.300781 15.90625 14.5 C 17.15625 14.695312 18.394531 14.898438 19.625 15.109375 Z M 25.34375 -1.796875 L 25.40625 -0.484375 L 16.4375 7.390625 L 15.0625 7.15625 L 12 3.65625 L 11.953125 2.28125 L 20.921875 -5.59375 L 22.234375 -5.34375 Z M 25.34375 -1.796875 "/></g></g></g><g fill="#910a0a" fill-opacity="0.4"><g transform="translate(305.507223, 187.9062)"><g><path d="M 24.046875 -5.765625 L 27.703125 -8.15625 L 24.921875 -12.40625 L 22.171875 -10.59375 L 15.75 -8.3125 L 16.078125 -6.09375 Z M 28.34375 0.78125 L 32 -1.609375 L 29.21875 -5.84375 L 26.46875 -4.03125 L 20.046875 -1.765625 L 20.375 0.46875 Z M 28.34375 0.78125 "/></g></g></g><g fill="#ffffff" fill-opacity="1"><g transform="translate(65.769678, 201.172232)"><g><path d="M -16.65625 -18.984375 L -19.40625 -20.796875 L -22.1875 -16.5625 L -18.53125 -14.171875 L -10.5625 -14.5 L -10.234375 -16.71875 Z M -12.359375 -25.546875 L -15.109375 -27.359375 L -17.890625 -23.109375 L -14.234375 -20.71875 L -6.265625 -21.046875 L -5.9375 -23.265625 Z M -12.359375 -25.546875 "/></g></g></g><g fill="#ffffff" fill-opacity="1"><g transform="translate(74.064057, 187.660013)"><g><path d="M 3.734375 -30.546875 L -3.34375 -36.8125 L -19.03125 -19.0625 L -14.625 -15.171875 L -12.125 -16.84375 L -1.90625 -7.828125 L -3.265625 -5.125 L 1.109375 -1.265625 L 16.828125 -19.046875 L 9.78125 -25.28125 L 6.015625 -21.03125 L 7.609375 -18.59375 L 3.328125 -13.75 L -0.171875 -16.84375 L 4.109375 -21.6875 L 0.65625 -24.734375 L -3.625 -19.890625 L -6.890625 -22.765625 L -2.609375 -27.609375 L 0 -26.328125 Z M 3.734375 -30.546875 "/></g></g></g><g fill="#ffffff" fill-opacity="1"><g transform="translate(90.326472, 169.014012)"><g><path d="M -0.859375 -26.265625 L -4.53125 -30.84375 L -15.53125 -22 L -11.859375 -17.421875 L -9.09375 -18.65625 L -0.546875 -8.046875 L -2.34375 -5.609375 L 1.3125 -1.0625 L 19.765625 -15.90625 L 13.34375 -23.890625 L 8.921875 -20.328125 L 10.59375 -17.015625 L 5.640625 -13.015625 L -2.90625 -23.625 Z M -0.859375 -26.265625 "/></g></g></g><g fill="#ffffff" fill-opacity="1"><g transform="translate(109.231192, 154.107401)"><g/></g></g><g fill="#ffffff" fill-opacity="1"><g transform="translate(119.36276, 146.633023)"><g><path d="M 24.78125 -32.625 L 22.578125 -38.0625 L 11.671875 -33.671875 L 10.484375 -24.3125 L 3.203125 -30.265625 L -8.484375 -25.546875 L -6.28125 -20.109375 L -3.28125 -20.484375 L 1.8125 -7.84375 L -0.609375 -6.03125 L 1.5625 -0.625 L 14.640625 -5.90625 L 12.46875 -11.3125 L 8.75 -10.640625 L 5.3125 -19.15625 L 12.890625 -13.3125 L 15.671875 -14.4375 L 17.0625 -23.90625 L 20.5 -15.390625 L 17.375 -13.28125 L 19.546875 -7.875 L 32.625 -13.140625 L 30.453125 -18.546875 L 27.515625 -18.203125 L 22.421875 -30.84375 Z M 24.78125 -32.625 "/></g></g></g><g fill="#ffffff" fill-opacity="1"><g transform="translate(151.198577, 134.050098)"><g><path d="M 21.890625 -21.625 L 20.21875 -30.9375 L -3.09375 -26.75 L -2.0625 -20.96875 L 0.953125 -20.734375 L 3.359375 -7.3125 L 0.625 -6.03125 L 1.65625 -0.296875 L 25.015625 -4.5 L 23.359375 -13.765625 L 17.765625 -12.75 L 17.5 -9.859375 L 11.140625 -8.71875 L 10.3125 -13.328125 L 16.671875 -14.46875 L 15.859375 -19 L 9.5 -17.859375 L 8.734375 -22.140625 L 15.09375 -23.28125 L 16.34375 -20.625 Z M 21.890625 -21.625 "/></g></g></g><g fill="#ffffff" fill-opacity="1"><g transform="translate(175.440401, 129.419925)"><g><path d="M 27.4375 -21.015625 L 27.4375 -26.890625 L 17.6875 -26.890625 L 17.6875 -21.015625 L 19.328125 -20.25 L 16.296875 -16.171875 L 12.921875 -20.25 L 15 -21.015625 L 15 -26.890625 L 0.828125 -26.875 L 0.828125 -21 L 3.984375 -20.234375 L 9.125 -14.046875 L 2.71875 -6.609375 L 0.6875 -5.828125 L 0.6875 0 L 10.5625 0 L 10.5625 -5.828125 L 8.71875 -6.609375 L 11.90625 -10.90625 L 15.359375 -6.625 L 13.171875 -5.84375 L 13.171875 -0.015625 L 27.640625 -0.015625 L 27.640625 -5.84375 L 24.71875 -6.625 L 19.140625 -13.0625 L 25.328125 -20.25 Z M 27.4375 -21.015625 "/></g></g></g><g fill="#ffffff" fill-opacity="1"><g transform="translate(201.602725, 129.590223)"><g><path d="M 19.3125 -18.3125 L 20.203125 -24.125 L 6.609375 -26.1875 L 5.71875 -20.375 L 8.5 -19.171875 L 6.453125 -5.703125 L 3.453125 -5.375 L 2.578125 0.390625 L 16.171875 2.453125 L 17.046875 -3.3125 L 14.265625 -4.515625 L 16.3125 -17.984375 Z M 19.3125 -18.3125 "/></g></g></g><g fill="#ffffff" fill-opacity="1"><g transform="translate(218.468271, 131.757702)"><g><path d="M 29.4375 -14.625 L 25.703125 -20.328125 L 15.078125 -23.53125 L 7.9375 -20.5 L 3.09375 -4.4375 L 7.546875 2.265625 L 17.71875 5.34375 C 18.78125 4.894531 19.859375 4.441406 20.953125 3.984375 C 22.054688 3.523438 23.15625 3.054688 24.25 2.578125 L 25.65625 -2.078125 L 18.78125 -4.15625 L 17.234375 -1.703125 L 12.203125 -3.21875 L 11.359375 -4.4375 L 14.765625 -15.75 L 16.109375 -16.28125 L 21.171875 -14.75 L 21.09375 -11.84375 L 27.96875 -9.765625 Z M 29.4375 -14.625 "/></g></g></g><g fill="#ffffff" fill-opacity="1"><g transform="translate(240.931313, 138.12081)"><g><path d="M 25.96875 5.78125 L 30.515625 -14.625 L 16.6875 -21.65625 L 14.03125 -16.421875 L 15.90625 -14.609375 L 6.25 -4.234375 L 3.25 -4.890625 L 0.609375 0.3125 L 10.875 5.53125 L 13.515625 0.328125 L 12.203125 -1.203125 L 13.875 -3.03125 L 19.03125 -0.40625 L 18.578125 2.03125 L 16.40625 1.796875 L 13.765625 7 L 25.90625 13.171875 L 28.546875 7.96875 Z M 21.171875 -11.25 L 19.984375 -5.09375 L 16.9375 -6.640625 Z M 21.171875 -11.25 "/></g></g></g><g fill="#ffffff" fill-opacity="1"><g transform="translate(265.326039, 150.142422)"><g><path d="M 30.984375 -9.8125 L 27.34375 -5.1875 L 29.171875 -2.796875 L 24.390625 3.28125 L 27 -12.953125 L 17.953125 -20.078125 L 14.3125 -15.453125 L 16.140625 -13.0625 L 7.71875 -2.34375 L 4.9375 -3.53125 L 1.328125 1.046875 L 11.203125 8.8125 L 14.8125 4.234375 L 13 1.8125 L 18.15625 -4.765625 L 15.859375 12.484375 L 21.96875 17.28125 L 34.484375 1.375 L 37.234375 2.578125 L 40.875 -2.046875 Z M 30.984375 -9.8125 "/></g></g></g><g fill="#ffffff" fill-opacity="1"><g transform="translate(288.130598, 168.120498)"><g><path d="M 19.625 15.109375 L 32.703125 3.640625 L 32.53125 -3.65625 L 25.015625 -12.234375 L 17.796875 -13.359375 L 4.71875 -1.890625 L 4.9375 5.625 L 12.171875 13.890625 C 13.410156 14.097656 14.65625 14.300781 15.90625 14.5 C 17.15625 14.695312 18.394531 14.898438 19.625 15.109375 Z M 25.34375 -1.796875 L 25.40625 -0.484375 L 16.4375 7.390625 L 15.0625 7.15625 L 12 3.65625 L 11.953125 2.28125 L 20.921875 -5.59375 L 22.234375 -5.34375 Z M 25.34375 -1.796875 "/></g></g></g><g fill="#ffffff" fill-opacity="1"><g transform="translate(303.810582, 186.209558)"><g><path d="M 24.046875 -5.765625 L 27.703125 -8.15625 L 24.921875 -12.40625 L 22.171875 -10.59375 L 15.75 -8.3125 L 16.078125 -6.09375 Z M 28.34375 0.78125 L 32 -1.609375 L 29.21875 -5.84375 L 26.46875 -4.03125 L 20.046875 -1.765625 L 20.375 0.46875 Z M 28.34375 0.78125 "/></g></g></g></svg>