<?xml version="1.0" encoding="utf-8"?>
<!-- Generator: Adobe Illustrator 19.0.0, SVG Export Plug-In . SVG Version: 6.00 Build 0)  -->
<svg version="1.1" id="layer" xmlns="http://www.w3.org/2000/svg" xmlns:xlink="http://www.w3.org/1999/xlink" x="0px" y="0px"
	 viewBox="-153 -46 652 652" style="enable-background:new -153 -46 652 652;" xml:space="preserve">
<style type="text/css">
	.st0{fill:#FFFFFF;}
</style>
<path id="Fill-1" d="M-75,281C-75,419,36.9,531,175,531S425,419,425,281C425,142.9,313,31,175,31S-75,142.9-75,281"/>
<path id="Fill-3" class="st0" d="M-69,281c0,134.8,109.2,244,244,244s244-109.2,244-244c0-134.8-109.2-244-244-244S-69,146.2-69,281
	"/>
<path id="Fill-5" d="M-62.9,281c0,131.4,106.5,237.8,237.8,237.8c131.4,0,237.8-106.5,237.8-237.8c0-131.4-106.5-237.8-237.8-237.8
	C43.6,43.1-62.9,149.6-62.9,281"/>
<path id="Fill-7" class="st0" d="M354.2,378.7c-4-8.9-13-11.8-18-12.8c-6.6-1.2-13.6-0.8-20.3-0.4c-2,0.1-4,0.2-6,0.3
	c-10.3,0.4-22,0.4-31.5-5.1c-0.3-0.2-0.5-0.3-0.8-0.5c-5.9-3.7-7.5-11.5-3.8-17.3c11.2-17.9,17.8-38.9,17.8-61.5
	c0.2-64.3-52.2-117-116.5-117.2c-64.5-0.2-117,52.3-117,116.7c0,22.9,6.6,44.2,18,62.2c3.8,6,2,14-4.1,17.6c0,0-0.1,0-0.1,0.1
	c-9.6,5.5-21.4,5.5-31.8,5.1c-2-0.1-4-0.2-6-0.3c-6.8-0.4-13.8-0.8-20.5,0.4c-5,0.9-14.6,5-18.1,12.8c-3.5,7.9-3.1,17.4-3.1,17.4
	c-3-4.7-5.8-9.5-8.4-14.4c-2.9-5.6-5.7-11.2-8.1-17c-11.2-26.6-17-54.9-17-84c0-29.1,5.7-57.4,17-84c10.9-25.7,26.4-48.8,46.2-68.6
	C42.2,108.6,65.3,93,91,82.2c26.6-11.2,54.8-17,84-17c29.1,0,57.4,5.7,84,17c25.7,10.9,48.8,26.4,68.6,46.2
	c19.8,19.8,35.4,42.9,46.2,68.6c11.2,26.6,17,54.8,17,84c0,29.1-5.7,57.4-17,84c-4,9.6-8.7,18.8-14.1,27.6c-0.6,1.1-2.3,0.7-2.4-0.6
	C357,388.4,356.2,383.2,354.2,378.7 M176.5,393.7c-63.4,0.9-115.2-50.9-114.3-114.3c0.8-60.8,50.4-110.3,111.2-111.2
	c63.4-0.9,115.2,50.9,114.3,114.3C286.9,343.4,237.4,392.9,176.5,393.7 M378.5,195c-11.1-26.3-27.1-49.9-47.3-70.2
	c-20.3-20.3-43.9-36.2-70.2-47.3c-27.2-11.5-56.2-17.4-86-17.4c-29.8,0-58.7,5.8-86,17.4c-26.3,11.1-49.9,27.1-70.2,47.3
	c-20.3,20.3-36.2,43.9-47.3,70.2c-11.5,27.2-17.4,56.2-17.4,86c0,29.8,5.8,58.8,17.4,86c11.1,26.3,27.1,49.9,47.3,70.2
	c20.3,20.3,43.9,36.2,70.2,47.3c27.2,11.5,56.2,17.4,86,17.4c29.8,0,58.8-5.8,86-17.4c26.3-11.1,49.9-27.1,70.2-47.3
	c20.3-20.3,36.2-43.9,47.3-70.2c11.5-27.2,17.4-56.2,17.4-86C395.9,251.2,390,222.2,378.5,195"/>
<path d="M91.4,413.4l5.4-8c1.2-1.7,1-2.9-1-4.2l-3.9-2.7c-1.9-1.3-3-1.1-4.2,0.6l-25.4,37.4c-1.2,1.8-1,2.9,1,4.2l3.9,2.7
	c1.9,1.3,3,1.2,4.2-0.6l8.1-11.9l-4.8-3.3l6.2-9.1l18.5,12.6l-15.1,22.3c-4.4,6.5-10.6,8.2-19.3,2.3l-12.4-8.4
	c-8.7-5.9-9.4-12.2-4.9-18.8l27.1-39.9c4.4-6.5,10.5-8.3,19.3-2.3l12.4,8.4c8.6,5.9,9.4,12.2,4.9,18.8l-6.3,9.2L91.4,413.4z
	 M171,414.9l-11.5,59.8c-1.5,7.9-6.5,11.9-16.9,9.9l-15.3-2.9c-10.4-2-13.4-7.5-11.9-15.4l11.5-59.8l16.3,3.1l-11.1,57.6
	c-0.4,2,0.2,3,2.4,3.4l5.5,1.1c2.3,0.4,3.2-0.2,3.6-2.3l11.1-57.6L171,414.9z M221.2,457l5,23.2l-16.2,3.5l-5-23.4l-28.7-44.8
	l16.6-3.6l16.9,31.8l1.6-35.8l16.6-3.6L221.2,457z M278.2,425.3c-1.1-1.8-2.2-1.9-4.1-0.7l-8.6,5.4c-8.6,5.4-14.3,3-18.5-3.7
	l-9-14.2c-4.2-6.7-3.4-13,5.6-18.6l12-7.5c8.9-5.6,15-3.7,19.2,3l5.1,8.1l-14,8.8l-3.9-6.2c-1.1-1.8-2.2-2-4.2-0.8l-3.3,2.1
	c-2,1.2-2.2,2.4-1.1,4.1l6.9,11c1.1,1.8,2.2,1.9,4.1,0.7l8.4-5.3c8.7-5.5,14.3-3.4,18.5,3.3l9.3,14.7c4.3,6.8,3.4,13.1-5.5,18.7
	l-11.9,7.5c-8.9,5.6-15.1,3.7-19.3-3l-5.1-8l14-8.8l3.9,6.2c1.1,1.8,2.2,2,4.2,0.8l3.3-2.1c2-1.2,2.2-2.4,1.1-4.1L278.2,425.3z"/>
<path class="st0" d="M164.8,343.4h4.1v2.5h-7.6v-13.1h3.6V343.4z M175,343v-7.1c0-0.3-0.2-0.4-0.5-0.4h-0.9c-0.3,0-0.5,0.1-0.5,0.4
	v7.1c0,0.3,0.2,0.4,0.5,0.4h0.9C174.9,343.4,175,343.3,175,343 M172.6,332.9h3c2,0,3,0.8,3,2.5v8c0,1.7-1,2.5-3,2.5h-3
	c-2,0-3-0.8-3-2.5v-8C169.6,333.7,170.6,332.9,172.6,332.9 M185.2,343v-1.9c0-0.3-0.2-0.4-0.5-0.4h-2c-1,0-1.7-0.2-2.1-0.7
	c-0.4-0.4-0.6-1.1-0.6-1.9v-2.7c0-1.7,1-2.5,3-2.5h2.8c2,0,3,0.8,3,2.5v1.6h-3.6v-1.1c0-0.3-0.2-0.4-0.5-0.4H184
	c-0.3,0-0.5,0.1-0.5,0.4v1.9c0,0.3,0.2,0.4,0.5,0.4h1.9c1,0,1.7,0.2,2.1,0.6c0.4,0.4,0.6,1,0.6,1.9v2.7c0,1.7-1,2.5-3,2.5H183
	c-2,0-3-0.8-3-2.5v-1.6h3.6v1.1c0,0.3,0.2,0.4,0.5,0.4h0.6C185,343.4,185.2,343.3,185.2,343 M135.4,360.2h2.7l-1.3-6.3L135.4,360.2z
	 M139.4,366.2l-0.5-2.6h-4.2l-0.6,2.6h-4.7l4.5-17.4h5.8l4.5,17.4H139.4z M153.3,348.8h4.3v17.4h-4.1l-3.9-9.2v9.2h-4.3v-17.4h4.1
	l3.9,9.3V348.8z M171.5,354.7h-4.8v-2.3c0-0.4-0.2-0.6-0.7-0.6h-1c-0.5,0-0.7,0.2-0.7,0.6v10c0,0.4,0.2,0.6,0.7,0.6h1
	c0.5,0,0.7-0.2,0.7-0.6v-2.9h-1.4v-3h6.1v6.3c0,2.2-1.3,3.4-4,3.4h-3.9c-2.7,0-4-1.1-4-3.4v-10.7c0-2.2,1.3-3.4,4-3.4h3.9
	c2.7,0,4,1.1,4,3.4V354.7z M178.2,362.8h6v3.4h-10.7v-17.4h10.5v3.4h-5.7v3.6h4.9v3.4h-4.9V362.8z M190.4,362.8h5.4v3.4h-10.2v-17.4
	h4.8V362.8z M201.6,362.8h6v3.4h-10.7v-17.4h10.5v3.4h-5.7v3.6h4.9v3.4h-4.9V362.8z M215.7,362.2v-2.5c0-0.4-0.2-0.6-0.7-0.6h-2.6
	c-1.3,0-2.3-0.3-2.8-0.9c-0.6-0.6-0.8-1.4-0.8-2.5v-3.6c0-2.2,1.3-3.4,4-3.4h3.7c2.6,0,4,1.1,4,3.4v2.1h-4.8v-1.5
	c0-0.4-0.2-0.6-0.7-0.6h-0.8c-0.5,0-0.7,0.2-0.7,0.6v2.6c0,0.4,0.2,0.6,0.7,0.6h2.6c1.3,0,2.3,0.3,2.9,0.8c0.6,0.6,0.9,1.4,0.9,2.5
	v3.6c0,2.2-1.3,3.4-4,3.4h-3.7c-2.7,0-4-1.1-4-3.4v-2.1h4.8v1.5c0,0.4,0.2,0.6,0.7,0.6h0.8C215.5,362.8,215.7,362.6,215.7,362.2
	 M173.5,221.2h1.1c0.5,0,0.9-0.1,1.1-0.2c0.2-0.2,0.3-0.4,0.3-0.6c0-0.2,0-0.3-0.1-0.4c-0.1-0.1-0.2-0.2-0.4-0.3
	c-0.2-0.1-0.5-0.1-0.9-0.1h-1V221.2z M172.6,224.3v-5.6h1.9c0.7,0,1.1,0,1.4,0.2c0.3,0.1,0.5,0.3,0.7,0.5c0.2,0.3,0.3,0.5,0.3,0.8
	c0,0.4-0.2,0.8-0.4,1.1c-0.3,0.3-0.7,0.5-1.2,0.5c0.2,0.1,0.4,0.2,0.5,0.3c0.2,0.2,0.5,0.6,0.9,1.1l0.7,1.1h-1.1l-0.5-0.9
	c-0.4-0.7-0.7-1.1-1-1.3c-0.2-0.1-0.4-0.2-0.7-0.2h-0.5v2.4H172.6z M174.9,217.1c-0.7,0-1.4,0.2-2.1,0.6c-0.7,0.4-1.2,0.9-1.6,1.6
	c-0.4,0.7-0.6,1.4-0.6,2.2c0,0.7,0.2,1.5,0.6,2.2c0.4,0.7,0.9,1.2,1.6,1.6c0.7,0.4,1.4,0.6,2.2,0.6c0.8,0,1.5-0.2,2.2-0.6
	c0.7-0.4,1.2-0.9,1.6-1.6c0.4-0.7,0.6-1.4,0.6-2.2c0-0.8-0.2-1.5-0.6-2.2c-0.4-0.7-0.9-1.2-1.6-1.6
	C176.4,217.3,175.7,217.1,174.9,217.1z M174.9,216.2c0.9,0,1.7,0.2,2.6,0.7c0.8,0.4,1.5,1.1,1.9,1.9c0.5,0.8,0.7,1.7,0.7,2.6
	c0,0.9-0.2,1.8-0.7,2.6c-0.5,0.8-1.1,1.5-1.9,1.9c-0.8,0.4-1.7,0.7-2.6,0.7c-0.9,0-1.8-0.2-2.6-0.7c-0.8-0.5-1.5-1.1-1.9-1.9
	c-0.5-0.8-0.7-1.7-0.7-2.6c0-0.9,0.2-1.8,0.7-2.6c0.5-0.8,1.1-1.5,2-1.9C173.2,216.4,174.1,216.2,174.9,216.2z M126.4,298.9
	c-1.6,0.3-3.5,0.5-5.1,0.1c-1.5-0.3-2.9-0.8-4.5-1c-0.4,0-0.7,0.2-0.7,0.6l-0.2,3.6c0,0.3,0.2,0.6,0.5,0.6
	c6.9,0.9,12.6,6.4,13.4,13.6c1,8.3-4.8,15.9-13,17.3c-0.4,0.1-0.7,0.4-0.7,0.8l0.5,4.9c0,0.4,0.4,0.7,0.8,0.7l9-0.5
	c0.4,0,0.7-0.4,0.7-0.8l-0.2-4.2c0-0.2,0.1-0.5,0.3-0.6c5-4.1,7.9-10.5,7.3-17.4c0,0-0.4-2.4,1.8-4.9l0.8-0.9c0.7-0.9,1.7-1.9,3-2.9
	c0.5-0.4,1.4-0.9,1.5-1.6c0.1-1.1-0.7-2.3-1.4-3.1c-1.2-1.4-2.3-2.9-3.2-4.5c-0.4-0.8-0.7-1.6-1-2.5c-0.2-0.6-0.6-1.6-1.4-1.6
	c-0.8,0-1.6,0.2-2.3,0.7c-0.9,0.7-1.6,1.6-2.5,2.2C129,298.3,127.6,298.6,126.4,298.9 M98.9,320.1c-1-8.3,4.8-15.9,13-17.3
	c0.4-0.1,0.6-0.4,0.6-0.8l-0.4-3.4c0-0.4-0.4-0.7-0.8-0.6c-10.8,1.7-18.5,11.7-17.2,22.6c0.7,6.1,4,11.2,8.7,14.5
	c0.2,0.1,0.3,0.3,0.3,0.5l0.2,4.3c0,0.4,0.3,0.7,0.7,0.7l8.5-0.4c0.4,0,0.7-0.4,0.7-0.8l-0.4-5.2c0-0.3-0.3-0.6-0.6-0.6
	C105.4,332.8,99.8,327.4,98.9,320.1 M134,251l-9.5-7.8c-0.3-0.2-0.3-0.6-0.1-0.9l1.8-2.6c0.2-0.3,0.7-0.4,1-0.2l10.2,7
	c0.4,0.3,0.5,0.8,0.2,1.1c-0.6,0.8-1.6,2.1-2.4,3.2C134.8,251.2,134.3,251.3,134,251 M115.5,212.9c0.1-0.7-4-3.5-4.8-4
	c-0.4-0.1-8.7,11.2-10.3,13.3c-1,1.4-9.9,12.8-10,13.4c-0.1,0.6,4.1,3.6,5.1,3.7c0.5,0.1,9.1-11.8,10.2-13.2
	C106.9,224.6,115.4,213.6,115.5,212.9 M120.7,234.7c-0.3,2.3-2.4,4-4.7,3.7c-2.4-0.3-4-2.4-3.7-4.7c0.3-2.3,2.4-4,4.7-3.7
	C119.3,230.2,121,232.4,120.7,234.7 M132.9,225.5c-1.7-1.1-3.1-2.4-4.6-3.6c-1.3-1-8.6-6.6-9.7-6.7c-0.5-0.1-9,11.8-10.1,13.2
	c-1,1.3-9.7,13-9.7,13.3c-0.1,0.7,8.2,6.6,9.4,7.5c1.7,1.3,3.2,2.3,4.9,3.6c0.7,0.6,4.3,4,4.5,2l0.3-2.1c0.7-6.1,3.9-11.8,6.9-15.1
	c2.1-2.3,9.3-7.6,12.2-8C137.6,228.3,136.4,228.1,132.9,225.5 M223.1,298.9c1.6,0.3,3.5,0.5,5.1,0.1c1.5-0.3,2.9-0.8,4.5-1
	c0.3,0,0.7,0.2,0.7,0.6l0.2,3.6c0,0.3-0.2,0.6-0.5,0.6c-6.9,0.9-12.6,6.4-13.4,13.6c-1,8.3,4.8,15.9,13,17.3
	c0.4,0.1,0.7,0.4,0.7,0.8l-0.5,4.9c0,0.4-0.4,0.7-0.8,0.7l-9-0.5c-0.4,0-0.7-0.4-0.7-0.8l0.2-4.2c0-0.2-0.1-0.5-0.3-0.6
	c-5-4.1-7.9-10.5-7.3-17.4c0,0,0.4-2.4-1.8-4.9l-0.8-0.9c-0.7-0.9-1.7-1.9-3-2.9c-0.5-0.4-1.4-0.9-1.5-1.6c-0.1-1.1,0.7-2.3,1.4-3.1
	c1.2-1.4,2.3-2.9,3.2-4.5c0.4-0.8,0.7-1.6,1-2.5c0.2-0.6,0.6-1.6,1.4-1.6c0.8,0,1.6,0.2,2.3,0.7c0.9,0.7,1.6,1.6,2.5,2.2
	C220.6,298.3,221.9,298.6,223.1,298.9 M250.6,320.1c1-8.3-4.8-15.9-13-17.3c-0.4-0.1-0.6-0.4-0.6-0.8l0.4-3.4c0-0.4,0.4-0.7,0.8-0.6
	c10.8,1.7,18.5,11.7,17.2,22.6c-0.7,6.1-4,11.2-8.7,14.5c-0.2,0.1-0.3,0.3-0.3,0.5l-0.2,4.3c0,0.4-0.3,0.7-0.7,0.7l-8.5-0.4
	c-0.4,0-0.7-0.4-0.7-0.8l0.4-5.2c0-0.3,0.3-0.6,0.6-0.6C244.1,332.8,249.8,327.4,250.6,320.1 M215.6,251l9.5-7.8
	c0.3-0.2,0.3-0.6,0.1-0.9l-1.8-2.6c-0.2-0.3-0.7-0.4-1-0.2l-10.2,7c-0.4,0.3-0.5,0.8-0.2,1.1c0.6,0.8,1.6,2.1,2.4,3.2
	C214.7,251.2,215.2,251.3,215.6,251 M234.4,213.4c-0.1-0.7,4-3.5,4.8-4c0.4-0.1,8.7,11.2,10.3,13.3c1,1.4,9.9,12.8,10,13.4
	c0.1,0.6-4.1,3.6-5.1,3.7c-0.5,0.1-9.1-11.8-10.2-13.2C243,225.1,234.5,214,234.4,213.4 M233.6,238.4c-2.3,0.3-4.5-1.4-4.7-3.7
	c-0.3-2.3,1.4-4.5,3.7-4.8c2.3-0.3,4.5,1.4,4.7,3.7C237.6,236,235.9,238.1,233.6,238.4 M241.1,228.4c-1.1-1.4-9.6-13.2-10.1-13.2
	c-1.2,0.1-8.4,5.7-9.7,6.7c-1.5,1.1-3,2.4-4.6,3.6c-3.5,2.6-4.7,2.8-4.1,4c3,0.4,10.1,5.8,12.2,8c3.1,3.3,6.2,9,6.9,15.1l0.3,2.1
	c0.2,2.1,3.8-1.4,4.5-2c1.7-1.3,3.2-2.3,4.9-3.6c1.2-1,9.5-6.8,9.4-7.5C250.9,241.3,242.2,229.6,241.1,228.4 M198.9,208.2
	c0,2.1,1.7,3.8,3.8,3.8c2.1,0,3.8-1.7,3.8-3.8c0-2.1-1.7-3.8-3.8-3.8C200.5,204.4,198.9,206.1,198.9,208.2 M208.2,210.5
	c-0.9,2.3-3,3.9-5.6,3.9c-3.3,0-6-2.7-6-6.1c0-0.3,0-0.6,0.1-1c-2.3,0-4,0.7-4.5,1.9c-0.9,2.4,3.3,6.3,9.4,8.5
	c6.1,2.3,11.7,2.2,12.6-0.3C214.9,215.5,212.3,212.7,208.2,210.5 M181.2,307.6c-0.7-2.4-3.3-4.6-6.4-4.6c-3.1,0-5.7,2.3-6.4,4.6
	c-0.1-0.4-0.2-0.8-0.2-1.3c0-3,3-5.4,6.6-5.4c3.7,0,6.6,2.4,6.6,5.4C181.4,306.8,181.3,307.2,181.2,307.6 M213.1,256.8
	c-1.3-3-3-5.8-5-8.5c-1.6-2.1-4-3.9-5.2-6.2c-0.3-0.5-0.5-1.1-0.6-1.7c-0.6-3,0-6.2,1.1-9c0.9-2.4,2.2-4.6,3.8-6.7
	c0.4-0.5,1.2-1.3,1-2c-0.1-0.4-0.5-0.6-0.9-0.6c-0.7-0.1-1.4-0.1-2.2-0.2c0,0-0.1,0-0.1,0c-2.5-0.3-5-1.2-7.2-2.2
	c-1.2-0.5-2.3-1.1-3.3-1.8c-0.5-0.3-0.9-0.6-1.3-1c-0.4-0.3-0.7-0.8-1.1-1c-0.7-0.4-1.5,0-1.6,0.8c-0.5,6.9-4.4,11.5-4.4,11.5
	c-1.4,1.6-2.9,3.2-4.9,3.8c-1.1,0.4-2.2,0.3-3.3,0.3c-1.5,0-2.9,0-4.4,0c-2.6,0.2-5.1,0.5-7.6,1.1c-4.2,1-8.3,2.6-12.1,4.7
	c-2.9,1.7-5.7,3.8-8.1,6.1c-1.6,1.5-3.1,3.2-4.4,5c-0.4,0.5-0.7,1-1,1.5c-7.8,10.6-6.2,23.4-5.1,28.5c0.2,1.1,1.4,1.5,2.3,1
	c7.6-4.5,18.5-1.7,24.6,4.2c1,1,2,2,2.7,3.2c4.5,7.4,1,12.4,1,12.4c-4.4,7.7-16.3,4.2-20,2.9c-0.4-0.2-0.9,0.3-0.7,0.7
	c1.9,4.9,4,5.2,4,5.2c1.4,0.3,2.9,0.2,4.4,0c0.9-0.1,1.8-0.4,2.7-0.4c1.2,0,1.1,0.5,1.5,1.4c1.4,2.9,3.5,5,4.5,5.8
	c0.3,0.2,0.7,0.1,0.7-0.3l0.6-3.4l0.9,0.1l0.7,5.6c0,0.2,0.1,0.3,0.3,0.4l2.1,1c0.3,0.1,0.6,0,0.6-0.3l0.8-4.7l0.6-0.1l1.2,6.3
	c0,0.2,0.2,0.3,0.4,0.4c0.5,0.1,1.2,0.4,1.7,0.3c0.5-0.2,0.5-0.8,0.6-1.2c0.1-0.6,0.2-1.3,0.4-1.9c0.2-0.9,0.3-1.7,0.5-2.5h0.6
	l1.5,5.4c0.1,0.2,0.3,0.4,0.6,0.3l2-0.6c0.2-0.1,0.3-0.2,0.3-0.4l0.6-5.4l0.7,0l1.2,4.6c0.1,0.3,0.4,0.4,0.7,0.3l2-1.4
	c0.1-0.1,0.2-0.2,0.2-0.3l0.6-5.9l0.7-0.3l1.4,3.6c0.1,0.3,0.5,0.4,0.7,0.2c1.2-1.1,3-3.6,4.2-5.3c0.6-0.8,1.6-1.3,2.6-1.1
	c1.5,0.3,3.1,0.7,3.1,0.7c4.2,0.7,6.5-3.3,7.3-5.7c0.2-0.6-0.4-1.1-0.9-0.9c-16.9,6.5-20.8-4.2-20.8-4.2
	c-4.6-10.8,10.9-18.6,10.9-18.6c11.5-4.2,17.4-0.6,19.3,1.1c0.4,0.3,1,0.1,1.1-0.3C217.2,273,216.5,264.5,213.1,256.8 M2.4,255.2
	l-11.5-1.3c-2.1-0.2-3,0.5-3.2,2.7l-0.5,4.7c-0.3,2.3,0.5,3.2,2.5,3.4l44.9,5.1c2.2,0.2,3-0.5,3.2-2.8l0.5-4.7
	c0.2-2.2-0.4-3.1-2.5-3.3l-11.2-1.3l1.9-16.6l12.7,1.4c7.8,0.9,12.2,5.6,11,16.1l-1.7,14.7c-1.2,10.5-6.5,14-14.3,13.1l-47.9-5.4
	c-7.8-0.9-12.2-5.5-11-16l1.7-14.7c1.2-10.5,6.5-14.1,14.3-13.2l13,1.5L2.4,255.2z M17.4,155.1L80,193.9l-8.6,13.9l-25.8-16
	l-7.8,12.6l25.8,16L55,234.3l-62.7-38.9l8.6-13.9L27.4,198l7.8-12.6L8.7,169L17.4,155.1z M115.9,153.3l6.8,10.1l-33.4,22.5
	l-41.2-61.2l32.6-22l6.8,10.1l-18.9,12.7l10,14.9l16.1-10.8l6.8,10.1l-16.1,10.8l10.8,16L115.9,153.3z M151.8,139.8l-13.5-32l6,49
	l-14.5,1.8l-9-73.2l18-2.2l17.2,40l7-42.9l18-2.2l9,73.2l-14.5,1.8l-6-49.1l-5.4,34.4L151.8,139.8z M238.5,90.2l-20.2,70.9
	l-15.8-4.5l20.2-70.9L238.5,90.2z M281.3,141.6l6.7-9.5c1.2-1.7,1-2.8-0.8-4.1l-3.9-2.7c-1.9-1.3-3-1.1-4.2,0.6L253,162.8
	c-1.3,1.8-1,2.8,0.9,4.2l3.9,2.7c1.8,1.3,2.9,1.2,4.1-0.6l6.5-9.2l13.6,9.6l-7.4,10.4c-4.6,6.4-10.8,8-19.4,1.9l-12.1-8.6
	c-8.6-6.1-9.1-12.4-4.6-18.9l27.9-39.4c4.6-6.4,10.7-8.1,19.3-2l12.1,8.6c8.6,6.1,9.2,12.5,4.7,18.9l-7.6,10.7L281.3,141.6z
	 M310.5,210l24-20.8l-30,10.4L310.5,210z M301.3,218.2l-8.4-14.6l-12.8,4.4l-8.2-14.2l72.2-22.4l10.5,18.3l-55.3,51.7L291,227
	L301.3,218.2z M316.1,285.6L304,287l-4.3-37.4l73.3-8.5l1.9,16.4l-61.2,7.1L316.1,285.6z"/>
</svg>
