<?xml version="1.0" encoding="UTF-8" standalone="no"?>
<!-- Created with Inkscape (http://www.inkscape.org/) -->

<svg
   version="1.1"
   id="svg2"
   width="257.33334"
   height="257.33334"
   viewBox="0 0 257.33334 257.33334"
   sodipodi:docname="Meguiars.eps"
   xmlns:inkscape="http://www.inkscape.org/namespaces/inkscape"
   xmlns:sodipodi="http://sodipodi.sourceforge.net/DTD/sodipodi-0.dtd"
   xmlns="http://www.w3.org/2000/svg"
   xmlns:svg="http://www.w3.org/2000/svg">
  <defs
     id="defs6" />
  <sodipodi:namedview
     id="namedview4"
     pagecolor="#ffffff"
     bordercolor="#000000"
     borderopacity="0.25"
     inkscape:showpageshadow="2"
     inkscape:pageopacity="0.0"
     inkscape:pagecheckerboard="0"
     inkscape:deskcolor="#d1d1d1" />
  <g
     id="g8"
     inkscape:groupmode="layer"
     inkscape:label="ink_ext_XXXXXX"
     transform="matrix(1.3333333,0,0,-1.3333333,0,257.33333)">
    <g
       id="g10"
       transform="scale(0.1)">
      <path
         d="M 0,1927.56 H 1927.56 V 0 H 0 v 1927.56"
         style="fill:#231f20;fill-opacity:1;fill-rule:evenodd;stroke:none"
         id="path12" />
      <path
         d="m 1180.39,1436.97 -10.97,-83.21 -57.74,61.65 41.47,-75.4 -72.87,-5.04 64.05,-10.72 -52.45,-54.59 70.35,35.18 3.79,-67.21 18.15,59.39 37.7,-42.49 -24.21,55.6 68.47,3.78 -65.31,18.91 50.56,58 -63.67,-39.59 -7.32,85.74"
         style="fill:#ffffff;fill-opacity:1;fill-rule:evenodd;stroke:none"
         id="path14" />
      <path
         d="m 667.23,896.449 c 7.817,59.137 -0.625,92.172 -22.437,94.188 -1.645,0.254 -3.285,0 -4.918,-0.504 v 27.737 c 18.66,7.06 36.813,3.66 48.035,-7.82 26.227,-27.105 23.074,-72.874 24.332,-126.585 -23.449,-9.961 -48.16,-21.18 -72.367,-31.77 v 32.403 z M 639.875,665.09 v 64.555 c 3.148,-1.262 6.68,-2.016 10.715,-2.016 26.605,0.879 34.293,22.816 44.633,54.086 7.062,19.543 23.074,15.133 17.906,-0.5 C 704.93,753.852 700.012,727.629 683.121,701.656 671.266,683.5 655.758,670.637 639.875,665.09 Z m 0,325.043 C 624.488,984.961 607.594,946.762 609.484,870.48 l 30.391,13.618 v -32.403 c -9.586,-4.164 -18.914,-8.199 -28.246,-12.105 2.269,-26.735 -3.406,-96.957 28.246,-109.945 V 665.09 c -18.285,-6.555 -36.945,-3.402 -50.941,12.23 -46.274,51.821 -41.985,174.75 -4.286,275.996 13.489,36.442 34.672,56.864 55.227,64.554 v -27.737"
         style="fill:#fff200;fill-opacity:1;fill-rule:evenodd;stroke:none"
         id="path16" />
      <path
         d="m 781.34,576.832 c -46.527,-2.269 -26.231,-17.019 -7.442,-17.273 63.293,-3.532 109.821,28.371 130.368,72.625 21.312,67.703 -21.684,86.621 -73.379,84.222 -60.899,-5.801 -105.91,-33.16 -140.332,-63.672 23.328,6.055 46.781,8.321 70.101,8.321 88.008,77.543 158.364,-55.477 20.684,-84.223"
         style="fill:#fff200;fill-opacity:1;fill-rule:evenodd;stroke:none"
         id="path18" />
      <path
         d="m 1002.36,1172.58 c 0.63,-88.77 1.14,-181.689 1.77,-270.455 -3.28,-57.492 47.4,0.379 50.93,20.426 0.26,77.293 1.52,148.019 1.9,225.309 -0.26,14.37 -12.99,18.28 -22.32,20.68 -12.86,6.05 -12.86,13.24 0.5,19.29 20.43,10.84 41.36,18.03 61.66,28.75 9.58,4.79 16.14,3.78 16.52,-9.97 -1.14,-96.45 -2.53,-190.76 -3.53,-287.212 0.62,-5.921 5.04,-10.839 18.02,-12.101 7.32,-0.633 13.24,-18.914 -2.39,-24.082 -21.56,-4.793 -40.6,-14.629 -56.99,-27.363 -6.3,-4.789 -11.85,-7.688 -11.47,3.277 -0.51,19.043 -3.41,27.113 -11.6,10.719 -51.067,-85.61 -101.122,-48.16 -99.735,26.601 0.504,63.551 1.008,146.641 1.637,210.181 -2.27,12.61 -8.196,14.38 -17.02,15.26 -12.484,2.9 -10.211,15 0.504,19.42 23.957,9.07 47.785,22.19 71.614,31.27"
         style="fill:#fff200;fill-opacity:1;fill-rule:evenodd;stroke:none"
         id="path20" />
      <path
         d="m 1207.37,1271.3 c 17.27,10.59 24.72,3.27 22.32,-21.82 -0.76,-90.4 -1.39,-180.8 -2.02,-270.949 0.51,-14.246 3.66,-17.273 17.28,-20.804 10.21,-1.133 11.59,-17.02 -4.42,-23.325 -27.48,-8.316 -55.48,-27.234 -77.79,-36.691 -17.78,-2.52 -18.79,14.125 -7.94,21.812 10.33,7.192 15.13,19.043 18.78,34.172 0.25,83.215 0.38,162.895 0.51,246.235 -1.52,11.23 -7.95,17.03 -17.28,20.3 -20.29,6.18 -7.56,20.56 4.41,28.25 17.4,7.69 28.75,15.25 46.15,22.82"
         style="fill:#fff200;fill-opacity:1;fill-rule:evenodd;stroke:none"
         id="path22" />
      <path
         d="m 1358.55,1160.72 c 0.63,-30.89 -0.76,-58.25 0,-89.14 -6.81,-19.54 -14.51,-34.67 -22.07,-41.48 v -37.948 c 8.45,10.338 16.65,22.308 23.96,35.808 2.02,-37.827 33.79,-59.386 71.49,17.27 15.5,26.61 -3.66,31.02 -18.91,14.38 2.14,69.72 3.52,177.77 0.5,211.18 -6.56,58.38 -41.86,72.88 -77.04,59.64 v -36.19 c 11.73,1.14 22.45,-5.67 23.45,-23.95 1.52,-30.01 -0.88,-47.79 -1.89,-73.88 -7.18,-6.43 -14.37,-12.87 -21.56,-19.68 v -35.93 c 6.06,7.94 13.36,14.63 22.07,19.92 z m -22.07,-130.62 c -8.32,-7.56 -16.14,-4.79 -21.56,13.74 -2.65,41.74 4.29,74.39 21.56,96.96 v 35.93 c -18.16,-17.14 -35.93,-35.93 -50.31,-59.13 -20.55,-23.33 -31.01,-51.94 -32.27,-84.85 v -14 c 0.5,-13.11 2.39,-26.852 5.42,-41.227 11.73,-35.429 46.27,-22.945 77.16,14.629 z m 0,300.33 v -36.19 c -15.25,-1.63 -32.28,-17.14 -31.02,-38.83 12.99,-31.14 17.4,-71.99 -18.28,-92.16 -17.02,-9.59 -28.49,11.34 -26.85,44.13 -1.01,60.14 37.44,108.55 76.15,123.05"
         style="fill:#fff200;fill-opacity:1;fill-rule:evenodd;stroke:none"
         id="path24" />
      <path
         d="m 822.695,593.348 c 5.797,130.371 -287.976,56.738 -336.898,-103.008 18.535,4.16 38.332,14.75 53.965,4.285 -11.852,-38.078 -22.067,-76.281 -21.559,-114.355 70.227,91.031 128.731,140.71 202.488,140.332 -3.531,-28.118 -6.679,-66.954 -10.336,-95.071 -1.011,-18.027 8.575,-21.433 34.543,-23.699 217.747,-2.398 401.952,324.66 606.712,388.711 -20.17,-90.527 25.85,-120.535 113.48,-50.938 109.31,99.352 222.15,196.184 327.05,137.305 10.22,29.254 -34.92,50.309 -51.56,80.567 9.33,13.992 35.17,23.578 56.86,30.132 -63.8,60.141 -180.93,25.221 -294.65,-41.605 2.64,43.371 -62.92,34.168 -120.04,19.793 C 1065.53,867.328 946.379,608.48 822.695,593.348"
         style="fill:#ed1c24;fill-opacity:1;fill-rule:evenodd;stroke:none"
         id="path26" />
      <path
         d="m 823.324,601.039 2.52,-139.699"
         style="fill:none;stroke:#231f20;stroke-width:6.97031;stroke-linecap:butt;stroke-linejoin:miter;stroke-miterlimit:2.6131;stroke-dasharray:none;stroke-opacity:1"
         id="path28" />
      <path
         d="m 711.992,517.824 c 144.492,3.656 159.75,-106.539 -3.027,-97.586"
         style="fill:none;stroke:#231f20;stroke-width:6.9708;stroke-linecap:butt;stroke-linejoin:miter;stroke-miterlimit:2.6131;stroke-dasharray:none;stroke-opacity:1"
         id="path30" />
      <path
         d="m 1372.42,829 v 4.285 h 0.12 c 3.53,1.008 6.18,6.055 8.19,15.508 1.02,4.539 2.02,10.215 2.53,16.77 0.38,6.304 0.25,13.617 0.12,21.812 -0.12,6.43 -0.12,11.98 -0.37,16.895 -0.26,4.918 -0.63,9.078 -1.52,12.484 -1.76,6.555 -4.41,9.453 -7.69,8.57 -0.5,-0.125 -0.88,-0.25 -1.38,-0.5 v 3.278 c 0.5,0.125 0.88,0.25 1.26,0.25 6.05,1.511 11.22,-1.512 15,-9.457 1.89,-3.907 3.15,-8.7 3.91,-14.122 0.75,-5.418 1.01,-11.597 1.26,-18.281 0.25,-7.566 0,-14.75 -1.01,-21.308 -1.13,-6.684 -2.9,-12.606 -4.91,-18.032 -4.04,-10.461 -8.96,-16.386 -15.39,-18.031 z m 46.14,26.727 c 0.25,11.097 0.38,21.937 0.13,32.531 -0.26,10.715 0.25,21.812 0.88,33.031 0.13,2.399 0,4.035 -0.25,4.543 -0.25,0.625 -0.76,0.883 -1.52,0.754 -0.88,-0.254 -2.14,-0.754 -3.52,-1.512 -1.39,-0.883 -2.4,-1.511 -2.91,-1.64 -0.37,0 -0.75,0.129 -1,0.254 -0.26,0.25 -0.38,0.628 -0.38,1.007 0,0.629 0.12,1.137 0.38,1.637 0.12,0.383 0.5,0.758 0.88,1.137 5.04,3.785 10.09,7.691 15.13,11.726 0.12,0.125 0.25,0.25 0.5,0.379 0.13,0 0.26,0.125 0.76,0.254 0.5,0 0.76,0 1.01,-0.254 0.25,-0.254 0.5,-0.629 0.5,-1.261 0,-0.379 -0.12,-1.762 -0.12,-4.032 -0.38,-9.586 -1.14,-19.422 -1.52,-28.879 -0.25,-5.8 -0.25,-11.472 -0.12,-17.144 0.25,-5.551 0.38,-11.223 0.38,-17.02 0,-1.515 0,-3.027 0,-4.539 0,-0.129 -0.13,-1.136 -0.13,-3.281 0,-2.016 -0.13,-4.035 -0.13,-6.18 -0.25,-5.418 0,-8.949 0.38,-10.461 0.51,-1.39 1.39,-2.398 2.65,-3.023 0.88,-0.508 2.4,-0.891 4.41,-1.012 2.14,-0.25 3.03,-0.758 3.16,-1.64 0,-1.133 -0.13,-1.762 -0.39,-2.145 -0.37,-0.504 -0.88,-0.504 -1.76,-0.504 -0.5,0 -2.14,0.254 -5.05,0.633 -2.77,0.379 -5.54,0.504 -7.81,0.504 -0.76,0 -2.27,-0.25 -4.41,-0.633 -2.15,-0.379 -3.78,-0.629 -5.17,-0.754 -1.14,-0.125 -1.89,0.125 -2.4,0.375 -0.5,0.379 -0.88,0.887 -1.01,1.641 0,1.136 1.52,2.273 4.42,3.152 0.76,0.254 1.38,0.504 1.89,0.754 1.26,0.508 2.01,3.914 2.14,10.344 0,0.504 0,1.008 0,1.258 z m -46.14,72.375 v -3.278 c -2.9,-1.64 -5.3,-6.308 -7.32,-14.125 -1.14,-4.535 -2.27,-9.961 -2.9,-16.136 -0.75,-6.18 -0.88,-12.989 -0.63,-20.551 0.13,-7.188 0.38,-13.492 0.76,-18.789 0.25,-5.418 0.88,-9.836 1.89,-13.239 1.76,-6.683 4.66,-9.578 8.2,-8.699 V 829 c -6.31,-1.641 -11.86,1.008 -15.89,8.699 -1.89,3.781 -3.15,8.699 -4.03,14.625 -0.89,5.801 -1.39,12.485 -1.52,20.047 -0.25,7.442 0.25,14.25 1.52,20.68 1.25,6.429 3.02,12.23 5.16,17.523 4.04,9.711 8.83,15.512 14.76,17.528 z m -171.6,-180.301 v 13.238 c 1.38,0 2.77,0.379 4.28,1.262 2.02,1.133 4.16,3.531 6.56,7.437 2.39,3.782 4.03,5.93 4.91,6.305 0.38,0.254 0.51,0.125 0.64,-0.125 0.25,-0.25 0.25,-0.754 0.25,-1.512 0,-0.886 -0.13,-1.64 -0.38,-2.648 -0.25,-0.883 -0.88,-2.27 -1.64,-3.91 -0.12,-0.25 -0.38,-0.754 -0.63,-1.387 -4.67,-9.707 -9.2,-15.762 -13.74,-18.41 -0.13,-0.125 -0.25,-0.125 -0.25,-0.25 z m 0,42.742 v 5.422 c 3.15,2.269 5.29,4.035 6.43,5.672 1.76,2.394 2.52,5.676 2.52,9.965 0,3.148 -0.63,5.418 -2.02,6.933 -1.26,1.383 -3.03,1.512 -5.04,0.379 -0.63,-0.379 -1.26,-0.883 -1.89,-1.512 v 4.661 c 0.5,0.378 1,0.757 1.64,1.136 4.54,2.649 8.32,1.891 11.59,-1.89 3.16,-4.036 4.8,-9.707 4.8,-17.657 0,-1.257 -0.13,-2.14 -0.38,-2.769 -0.13,-0.508 -0.88,-1.137 -2.02,-1.77 -5.17,-2.769 -10.47,-5.672 -15.63,-8.57 z m 67.07,14.625 c 0.13,11.727 0.38,23.324 0.38,34.926 0,11.601 0.76,23.453 1.26,35.301 0.13,2.652 0.13,4.164 -0.12,4.793 -0.26,0.632 -0.89,0.757 -1.64,0.378 -0.89,-0.378 -2.02,-1.132 -3.41,-2.394 -1.51,-1.387 -2.52,-2.27 -3.02,-2.524 -0.51,-0.125 -0.76,-0.253 -1.01,0 -0.26,0.125 -0.38,0.508 -0.38,1.008 0,0.633 0.12,1.262 0.38,1.766 0.25,0.504 0.5,1.012 1.01,1.512 5.04,5.425 10.08,10.593 15,15.89 0.25,0.254 0.38,0.375 0.51,0.504 0.12,0.121 0.5,0.25 0.75,0.379 0.63,0.25 1.01,0.375 1.26,0.125 0.13,-0.125 0.25,-0.633 0.38,-1.262 0,-0.379 -0.13,-1.89 -0.25,-4.16 -0.51,-10.215 -1.14,-20.301 -1.51,-30.133 -0.38,-6.179 -0.51,-12.105 -0.51,-18.156 0,-5.801 0.13,-11.851 0,-17.777 0,-1.641 0,-3.156 0,-4.793 0,-0.125 -0.12,-1.262 -0.12,-3.406 -0.13,-2.141 -0.13,-4.29 -0.13,-6.43 0,-5.547 0.38,-9.078 0.76,-10.211 0.5,-1.262 1.38,-1.891 2.65,-1.891 1,0 2.51,0.5 4.41,1.387 2.01,0.883 3.15,0.883 3.15,0 0.12,-1.133 0,-1.891 -0.26,-2.395 -0.25,-0.507 -0.88,-1.007 -1.63,-1.386 -0.51,-0.254 -2.27,-1.012 -5.17,-2.145 -2.78,-1.261 -5.43,-2.394 -7.82,-3.656 -0.76,-0.508 -2.27,-1.387 -4.29,-2.902 -2.14,-1.383 -3.78,-2.524 -5.04,-3.153 -1.27,-0.625 -2.02,-0.883 -2.65,-0.883 -0.5,0.129 -0.76,0.629 -0.88,1.391 0,1.262 1.39,3.152 4.16,5.547 0.88,0.629 1.51,1.133 2.02,1.637 1.26,1.011 1.76,4.918 1.89,11.855 0,0.504 -0.13,1.004 -0.13,1.258 z m 50.31,43.375 c -5.3,-2.145 -9.58,-1.012 -12.86,3.277 -3.28,4.414 -5.05,11.348 -4.66,20.93 0.25,9.078 2.64,17.777 6.8,25.973 4.04,7.941 8.7,12.73 14.25,14.5 6.81,2.269 12.48,0.504 16.64,-5.426 4.04,-5.922 5.3,-15.129 5.17,-26.977 0,-9.332 -0.63,-18.664 -3.02,-27.992 -2.4,-9.457 -6.06,-18.156 -10.22,-26.223 -4.41,-8.574 -8.7,-16.015 -13.36,-22.32 -4.67,-6.433 -8.45,-10.336 -11.73,-11.851 -0.38,-0.254 -0.63,-0.379 -0.88,-0.254 -0.13,0.129 -0.25,0.508 -0.38,1.136 -0.25,1.641 1.14,4.289 4.16,7.942 3.03,3.656 5.55,7.062 7.57,10.215 5.42,8.574 9.83,19.039 13.11,31.39 1.64,6.18 3.03,12.614 3.66,19.043 0.63,6.305 0.75,12.989 1.01,19.922 0.25,8.32 -0.51,15.383 -2.91,20.93 -2.39,5.422 -5.29,7.691 -8.32,6.555 -3.4,-1.008 -5.92,-4.665 -8.07,-10.59 -2.14,-6.055 -3.53,-13.743 -3.78,-23.075 -0.25,-7.187 0.63,-12.605 2.65,-16.39 2.02,-3.653 4.41,-4.914 7.31,-3.906 0.76,0.375 1.64,0.882 2.77,1.511 1.14,0.504 1.77,0.883 2.02,1.008 0.64,0.125 1.01,0.254 1.26,0 0.25,-0.125 0.38,-0.504 0.38,-1.008 0,-1.258 -0.88,-2.773 -2.52,-4.414 -1.64,-1.64 -3.65,-2.898 -6.05,-3.906 z M 1048.38,686.02 c -0.13,-3.028 -0.13,-6.055 -0.25,-9.079 0,-1.007 -0.13,-1.636 -0.38,-2.144 -0.12,-0.504 -0.37,-0.883 -0.88,-1.258 -0.76,-0.508 -1.39,-0.254 -1.64,0.879 -0.13,0.258 -0.13,0.379 -0.13,0.379 -0.75,3.152 -1.89,5.043 -3.4,6.051 -1.52,0.886 -3.28,0.761 -5.3,-0.625 -1.89,-1.137 -3.53,-3.028 -4.79,-5.547 -1.26,-2.399 -2.02,-4.918 -2.14,-7.442 -0.13,-3.535 2.52,-5.8 7.94,-6.558 0.89,-0.125 1.64,-0.125 2.02,-0.25 4.28,-0.383 7.06,-1.516 8.32,-3.531 1.26,-2.016 1.77,-5.547 1.89,-10.594 0.25,-6.68 -0.76,-12.86 -3.4,-18.66 -2.65,-5.797 -6.56,-10.84 -12.23,-14.875 -4.29,-3.153 -7.69,-4.539 -9.58,-4.414 -2.15,0.128 -3.41,2.019 -3.79,5.546 -0.38,4.04 -0.25,7.063 -0.12,8.957 0.25,2.016 0.63,3.153 1.26,3.528 0.76,0.504 1.51,-0.504 2.27,-3.028 0.25,-1.007 0.5,-1.89 0.75,-2.394 1.01,-1.891 2.4,-3.023 4.29,-3.406 1.89,-0.379 3.78,0.254 5.8,1.765 2.15,1.512 3.78,3.782 5.04,6.938 1.27,3.023 1.77,6.051 1.64,9.203 -0.25,3.66 -2.52,5.926 -7.18,6.555 -0.38,0 -0.64,0.129 -0.76,0.129 -5.17,0.878 -8.7,2.265 -10.22,4.285 -1.38,1.894 -2.14,4.789 -2.01,8.828 0.25,6.047 1.89,12.101 5.04,17.902 3.15,5.801 6.94,10.211 11.35,12.985 3.66,2.273 6.31,3.535 8.19,3.656 1.77,0 2.53,-1.258 2.4,-3.781 z m 152.44,136.043 v -4.661 c -2.02,-1.894 -3.79,-4.793 -5.55,-8.832 -2.27,-5.418 -3.53,-10.211 -3.53,-14.621 0,-1.136 0.25,-2.015 0.63,-2.398 0.5,-0.25 1.13,-0.25 2.02,0.254 2.39,1.511 4.54,2.898 6.43,4.16 v -5.422 c -2.27,-1.262 -4.54,-2.52 -6.81,-3.781 -0.88,-0.629 -1.52,-1.516 -2.02,-2.903 -0.51,-1.257 -0.76,-2.898 -0.76,-4.539 0,-6.933 1.26,-11.976 4.04,-15.254 1.64,-2.019 3.53,-3.027 5.55,-3.027 v -13.238 c -2.27,-1.133 -4.42,-1.766 -6.56,-1.641 -2.27,0.254 -4.41,1.137 -6.31,2.653 -2.27,1.761 -4.03,4.539 -5.16,8.195 -1.14,3.656 -1.65,8.32 -1.65,13.867 0.13,10.969 2.15,21.688 6.31,31.898 3.66,9.204 8.2,15.633 13.37,19.29 z M 1062.63,651.602 c -0.13,4.789 -0.13,9.703 0,14.75 0.12,5.043 0.25,10.086 0.5,15.128 0,0.254 0,0.508 0,0.758 0,2.27 0,4.035 -0.38,5.043 -0.25,1.137 -0.75,1.641 -1.51,1.516 -0.25,0 -0.63,-0.129 -1.13,-0.379 -1.39,-0.629 -2.15,-0.254 -2.15,1.008 0,1.008 0.76,2.519 2.27,4.285 0.63,0.758 1.14,1.387 1.52,1.891 3.4,4.668 6.55,9.711 9.45,15.132 0.63,1.262 1.14,2.016 1.26,2.141 0.38,0.383 0.63,0.383 0.76,0.254 0.12,-0.254 0.12,-0.883 0.12,-2.145 0,-0.125 0,-0.882 -0.12,-2.015 -0.51,-5.676 -0.76,-11.098 -1.01,-16.52 -0.13,-5.676 -0.13,-11.472 -0.25,-17.144 -0.13,-5.676 -0.13,-11.223 0.12,-16.77 0.13,-2.902 0.38,-4.414 0.76,-5.043 0.25,-0.508 0.76,-0.629 1.77,-0.383 0,0 0.12,0 0.25,0.129 0.88,0.379 1.51,0.758 1.89,1.008 0.38,0.125 0.76,0.254 1.26,0.633 0.76,0.504 1.26,0.25 1.38,-1.137 0,-0.633 0,-1.262 -0.25,-2.015 -0.25,-0.633 -0.62,-1.137 -1.13,-1.641 -0.13,0 -0.38,-0.129 -0.76,-0.379 -0.37,-0.121 -0.63,-0.379 -0.75,-0.504 -0.38,-0.25 -1.01,-0.758 -1.89,-1.387 -0.89,-0.628 -1.64,-1.261 -2.15,-1.765 -2.39,-1.891 -3.91,-3.406 -5.16,-4.41 -1.02,-0.887 -2.03,-1.641 -2.78,-2.399 -1.01,-0.883 -1.89,-1.89 -2.77,-2.644 -0.76,-0.762 -1.64,-1.516 -2.52,-2.145 -0.76,-0.633 -1.27,-1.012 -1.77,-1.012 -0.25,0 -0.63,0.254 -0.63,0.758 0,0.633 0.13,1.262 0.38,1.891 0.12,0.633 0.88,1.769 2.02,3.277 0.24,0.383 0.5,0.508 0.75,0.887 0.13,0.25 0.38,0.758 0.75,1.258 0.89,1.261 1.52,2.273 1.77,3.281 0.38,0.879 0.51,2.395 0.25,4.285 0,0.758 -0.12,1.641 -0.12,2.524 z m 2.39,82.707 c 0,2.777 0.63,5.421 1.64,7.82 0.88,2.269 2.27,4.285 4.04,5.672 1.64,1.383 2.9,1.765 3.91,1.012 0.88,-0.633 1.51,-2.274 1.38,-5.047 -0.12,-2.899 -0.62,-5.547 -1.64,-7.942 -1.13,-2.523 -2.39,-4.414 -4.16,-5.801 -1.64,-1.39 -2.89,-1.64 -3.78,-0.882 -1.01,0.882 -1.39,2.523 -1.39,5.168 z m 23.46,-56.231 c 0,8.195 0.25,16.391 0.5,24.711 -0.13,0.504 -0.13,1.137 0,1.641 0,2.773 -0.76,4.16 -2.27,4.285 v 0 c -0.63,-0.125 -1.01,0 -1.14,0.125 -0.25,0.254 -0.25,0.504 -0.25,1.008 0.13,0.886 1.01,3.027 2.9,6.054 1.14,2.141 2.27,3.782 2.91,5.168 1.38,2.649 2.89,5.93 4.41,9.582 1.64,3.786 2.52,5.801 2.77,6.051 0.38,0.254 0.5,0.254 0.76,0 0.13,-0.375 0.25,-0.879 0.25,-1.637 0,-0.628 -0.25,-1.636 -0.25,-3.152 -0.13,-1.512 -0.26,-2.648 -0.26,-3.406 0,-1.133 0,-1.891 0.13,-2.141 0,-0.379 0.13,-0.504 0.38,-0.254 0.5,0.379 1.13,1.641 2.27,3.91 0.88,2.145 1.76,3.786 2.52,5.043 1.64,3.028 3.41,5.926 5.17,8.321 1.89,2.523 3.78,4.793 5.8,6.558 4.41,4.285 7.69,5.547 9.46,3.407 1.89,-2.145 2.77,-7.571 2.64,-16.774 0,-0.25 0,-0.504 0,-0.754 -0.25,-10.086 -0.38,-20.176 -0.25,-30.008 0,-0.503 0,-1.011 0,-1.64 0.13,-0.375 0.13,-0.754 0.13,-1.137 0,-0.754 0.12,-1.262 0.37,-1.383 0.26,-0.254 0.63,-0.125 1.14,0 0.5,0.121 0.88,0.375 1.38,0.629 0.39,0.254 0.76,0.504 1.26,0.629 1.14,0.633 1.77,0.758 2.03,0.633 0.37,-0.254 0.5,-0.758 0.62,-1.516 0.13,-0.754 0,-1.515 -0.12,-2.015 -0.13,-0.504 -0.38,-0.883 -0.88,-1.262 -0.38,-0.25 -0.63,-0.629 -1.01,-1.008 -0.88,-0.254 -2.14,-1.133 -4.04,-2.519 -1.76,-1.262 -4.16,-3.282 -7.06,-5.93 -0.37,-0.25 -0.88,-0.754 -1.51,-1.387 -0.63,-0.629 -1.13,-1.137 -1.38,-1.383 -0.39,-0.382 -0.89,-1.011 -1.52,-1.894 -0.63,-0.883 -1.26,-1.641 -1.64,-2.016 -0.88,-0.629 -1.51,-1.008 -2.02,-1.008 -0.63,0 -0.88,0.25 -0.88,1.008 -0.12,0.754 -0.12,1.512 0.25,2.266 0.38,0.758 1.14,1.769 2.27,3.027 0.63,0.758 1.14,1.387 1.52,2.02 0.5,0.754 0.75,1.261 1,1.89 0.38,1.008 0.51,3.024 0.63,5.801 0.26,3.024 0.26,6.68 0.26,11.219 0,6.933 0.13,13.871 0.25,20.93 0,4.539 -0.76,7.187 -2.27,8.195 -1.51,1.012 -3.91,0 -6.81,-2.77 -1.89,-1.765 -3.65,-3.91 -5.17,-6.433 -1.64,-2.395 -3.02,-5.043 -4.03,-7.817 -0.5,-1.136 -0.76,-2.398 -0.89,-3.781 -0.25,-1.391 -0.37,-4.035 -0.37,-7.82 -0.26,-9.074 -0.38,-18.153 -0.26,-26.981 0,-0.629 0,-1.261 0,-1.765 0.13,-2.141 0.51,-3.657 0.89,-4.289 0.5,-0.629 1.13,-0.5 2.14,-0.121 0.38,0.121 0.76,0.121 1.13,0.25 0.38,0.25 0.76,0.503 1.27,0.757 1,0.629 1.76,0.883 2.14,0.754 0.25,0 0.38,-0.25 0.5,-0.754 0.13,-0.632 -0.12,-1.136 -0.5,-1.89 -0.25,-0.629 -0.76,-1.391 -1.64,-2.02 -1.26,-1.133 -2.77,-2.394 -4.91,-3.91 -2.15,-1.508 -3.66,-2.52 -4.54,-3.402 -0.64,-0.504 -1.64,-1.512 -3.16,-3.153 -0.12,-0.125 -0.25,-0.125 -0.25,-0.125 -0.51,-0.504 -1.26,-1.39 -2.4,-2.652 -1.26,-1.254 -2.26,-2.266 -3.02,-3.023 -0.38,-0.25 -0.76,-0.5 -1.01,-0.375 -0.38,0.125 -0.51,0.503 -0.63,1.007 0,0.504 0.25,1.512 0.76,3.024 0.25,0.629 0.5,1.262 0.62,1.64 0.51,0.379 0.76,0.758 1.14,1.383 0.38,0.633 0.88,1.262 1.14,2.145 0.37,1.011 0.63,2.398 0.75,4.035 0.13,1.769 -0.12,4.414 -0.12,8.199 z m 70.1,39.465 c -5.8,-4.668 -10.97,-5.547 -15.13,-2.523 -4.04,3.023 -6.06,9.457 -5.93,19.418 0.26,10.843 2.52,22.062 7.19,33.41 4.67,11.472 10.72,20.3 17.65,26.226 4.66,3.906 8.07,5.547 10.21,5.168 2.15,-0.375 3.16,-2.773 3.03,-7.187 0,-2.145 -0.25,-3.907 -1.01,-5.422 -0.63,-1.641 -1.52,-2.774 -2.77,-3.781 -0.76,-0.504 -1.77,-0.754 -2.53,-0.125 -0.88,0.378 -2.27,1.89 -3.9,4.41 -0.89,1.261 -1.64,1.894 -2.27,1.894 -0.76,0 -1.64,-0.508 -2.78,-1.515 -3.53,-2.899 -6.43,-8.321 -8.95,-16.137 -2.39,-7.691 -3.53,-16.137 -3.66,-24.965 -0.12,-8.32 1.27,-13.867 4.16,-16.644 3.03,-2.77 6.81,-2.27 11.23,1.136 1.89,1.387 3.78,3.782 6.05,7.059 2.27,3.277 3.65,5.047 4.03,5.301 0.26,0.246 0.51,0.246 0.76,-0.129 0.13,-0.379 0.25,-0.883 0.38,-1.766 0.12,-2.019 -1.52,-5.676 -4.79,-11.094 -3.28,-5.3 -6.94,-9.586 -10.97,-12.734"
         style="fill:#231f20;fill-opacity:1;fill-rule:evenodd;stroke:none"
         id="path32" />
      <path
         d="m 912.465,1085.95 c 0.504,10.85 -1.641,17.03 -1.012,27.74 -1.258,6.94 -29.5,-11.98 -43.242,-18.03 -20.047,4.92 -39.594,4.79 -56.863,-0.88 v -29.88 c 3.906,2.9 7.812,4.03 11.597,3.28 17.528,-3.79 14.246,-35.18 14.246,-80.446 0,-41.73 -9.832,-82.832 -25.843,-89.14 v -25.34 c 5.168,3.531 10.84,6.305 17.019,8.191 32.149,10.719 52.324,35.813 60.266,75.149 8.953,46.396 10.465,79.936 -6.176,117.006 10.461,3.91 19.543,8.58 30.008,12.35 z M 811.348,745.91 c 37.82,22.824 73.375,17.274 107.039,-8.07 38.711,-31.899 39.718,-95.57 -21.555,-152.688 -27.113,-25.468 -56.613,-45.765 -85.484,-59.632 v -35.809 c 87.5,35.93 161.886,89.641 182.82,196.941 v 0.25 26.477 c -5.676,87.25 -68.59,152.562 -182.82,100.867 z m 0,348.87 c -17.399,-5.8 -32.532,-17.4 -44.004,-35.17 -50.688,-85.239 -45.137,-161.641 2.394,-193.04 -25.468,-33.914 -39.34,-73.254 -36.312,-120.535 6.937,-31.394 23.707,-38.457 50.433,-21.43 9.329,8.825 18.532,15.883 27.489,21.305 v 68.336 c -0.887,-0.5 -1.766,-0.883 -2.778,-1.262 -20.929,-16.011 -30.761,-14.371 -29.754,4.918 5.926,25.852 16.641,44.512 32.532,55.352 v 25.34 c -1.262,-0.5 -2.778,-0.754 -4.164,-0.754 -18.407,0 -21.813,44.633 -21.813,89.894 0,35.306 12.234,66.956 25.977,77.166 z m 0,-569.26 c -48.797,-23.582 -95.95,-28.875 -128.227,-9.715 -16.016,-2.52 -30.262,-6.051 -46.273,-17.399 16.894,-42.488 81.953,-44 157.73,-15.254 5.672,2.141 11.223,4.289 16.77,6.559 v 35.809"
         style="fill:#fff200;fill-opacity:1;fill-rule:evenodd;stroke:none"
         id="path34" />
      <path
         d="m 1364.47,831.395 v 4.16 c 3.66,1.008 6.3,6.054 8.32,15.508 0.89,4.664 1.89,10.214 2.4,16.769 0.5,6.43 0.38,13.613 0.25,21.813 -0.13,6.433 -0.13,11.98 -0.38,16.898 -0.25,4.91 -0.76,9.199 -1.51,12.48 -1.76,6.555 -4.41,9.457 -7.82,8.571 -0.37,-0.125 -0.88,-0.246 -1.26,-0.504 v 3.281 c 0.38,0.125 0.76,0.25 1.14,0.25 6.18,1.512 11.34,-1.512 15.12,-9.453 1.9,-3.91 3.16,-8.578 3.91,-14.125 0.64,-5.418 1.01,-11.473 1.26,-18.156 0.26,-7.692 0,-14.875 -1.13,-21.434 -1.01,-6.683 -2.77,-12.609 -4.92,-18.027 -3.9,-10.469 -8.82,-16.391 -15.25,-18.031 z m 46.02,26.601 c 0.38,11.098 0.38,21.938 0.13,32.656 -0.25,10.715 0.38,21.688 0.88,32.911 0.13,2.394 0.13,4.031 -0.13,4.539 -0.25,0.628 -0.75,0.878 -1.51,0.753 -1.01,-0.253 -2.15,-0.753 -3.53,-1.507 -1.38,-0.891 -2.39,-1.516 -2.9,-1.516 -0.5,-0.129 -0.88,0 -1.13,0.125 -0.13,0.25 -0.26,0.629 -0.38,1.008 0,0.629 0.25,1.137 0.38,1.637 0.25,0.378 0.63,0.757 1,1.136 4.92,3.91 10.09,7.692 15.01,11.723 0.12,0.129 0.38,0.258 0.5,0.383 0.26,0 0.38,0.125 0.76,0.25 0.5,0.129 0.88,0 1.13,-0.25 0.26,-0.125 0.51,-0.629 0.51,-1.262 0,-0.379 -0.12,-1.766 -0.25,-4.031 -0.38,-9.586 -1.01,-19.422 -1.39,-28.875 -0.25,-5.801 -0.38,-11.477 -0.13,-17.149 0.26,-5.547 0.38,-11.222 0.38,-17.023 0,-1.512 0,-3.024 0,-4.539 0,-0.125 -0.12,-1.133 -0.12,-3.277 -0.13,-2.012 -0.13,-4.036 -0.26,-6.176 -0.12,-5.422 0.13,-8.953 0.51,-10.469 0.38,-1.383 1.26,-2.395 2.52,-3.023 1.01,-0.504 2.52,-0.883 4.54,-1.008 2.02,-0.254 3.03,-0.758 3.15,-1.641 0,-1.008 -0.12,-1.762 -0.38,-2.141 -0.38,-0.382 -0.88,-0.507 -1.76,-0.507 -0.51,0 -2.14,0.254 -5.05,0.632 -2.9,0.375 -5.54,0.629 -7.81,0.504 -0.88,0 -2.4,-0.25 -4.42,-0.629 -2.14,-0.382 -3.9,-0.632 -5.17,-0.757 -1.13,-0.125 -2.01,0.125 -2.39,0.375 -0.63,0.382 -1.01,0.882 -1.01,1.644 0,1.133 1.51,2.266 4.41,3.149 0.76,0.254 1.39,0.632 1.9,0.757 1.26,0.504 2.01,3.907 2.01,10.34 0.13,0.629 0,1.008 0,1.258 z m -46.02,72.375 v -3.281 c -3.02,-1.637 -5.29,-6.305 -7.31,-14.117 -1.14,-4.543 -2.27,-9.961 -2.9,-16.141 -0.76,-6.18 -0.88,-12.988 -0.76,-20.551 0.25,-7.187 0.51,-13.496 0.76,-18.785 0.38,-5.426 1.01,-9.836 1.89,-13.242 1.89,-6.68 4.79,-9.582 8.32,-8.699 v -4.16 c -6.43,-1.766 -11.85,0.882 -15.89,8.574 -2.01,3.785 -3.28,8.695 -4.03,14.625 -0.88,5.797 -1.39,12.605 -1.64,20.047 -0.13,7.437 0.38,14.246 1.64,20.675 1.26,6.559 3.03,12.36 5.17,17.528 4.03,9.707 8.83,15.508 14.75,17.527 z M 1192.75,750.07 v 13.239 c 1.38,0 2.9,0.379 4.41,1.261 2.02,1.133 4.04,3.532 6.55,7.442 2.4,3.777 4.04,5.922 4.92,6.301 0.26,0.25 0.51,0.125 0.63,-0.125 0.26,-0.254 0.26,-0.758 0.26,-1.512 0,-0.887 -0.13,-1.641 -0.38,-2.649 -0.25,-0.882 -0.88,-2.269 -1.64,-3.91 -0.25,-0.25 -0.38,-0.758 -0.76,-1.262 -4.54,-9.832 -9.08,-15.886 -13.61,-18.535 -0.13,-0.121 -0.26,-0.121 -0.38,-0.25 z m 0,42.743 v 5.421 c 3.27,2.27 5.42,4.036 6.55,5.676 1.64,2.395 2.4,5.672 2.4,9.961 0,3.149 -0.63,5.547 -1.9,6.934 -1.38,1.383 -3.02,1.511 -5.04,0.375 -0.63,-0.375 -1.38,-0.883 -2.01,-1.512 v 4.668 c 0.63,0.375 1.13,0.754 1.64,1.133 4.66,2.648 8.44,2.019 11.59,-1.895 3.28,-3.906 4.92,-9.703 4.92,-17.523 0,-1.262 -0.12,-2.27 -0.38,-2.899 -0.25,-0.504 -0.88,-1.132 -2.01,-1.765 -5.17,-2.774 -10.47,-5.676 -15.76,-8.574 z m 67.2,14.625 c 0.12,11.726 0.25,23.328 0.38,34.925 0,11.598 0.63,23.453 1.26,35.301 0.12,2.649 0.12,4.289 -0.25,4.793 -0.26,0.633 -0.76,0.758 -1.52,0.379 -0.88,-0.379 -2.14,-1.133 -3.53,-2.395 -1.39,-1.39 -2.39,-2.269 -2.9,-2.394 -0.5,-0.258 -0.88,-0.383 -1.13,-0.129 -0.25,0.129 -0.25,0.504 -0.25,1.008 0,0.633 0.12,1.262 0.37,1.765 0.13,0.504 0.51,1.012 1.01,1.516 5.04,5.418 9.96,10.586 15,15.887 0.26,0.25 0.38,0.375 0.51,0.5 0.13,0.129 0.38,0.254 0.76,0.379 0.5,0.254 1.01,0.382 1.26,0.129 0.13,-0.129 0.25,-0.633 0.25,-1.262 0,-0.379 0,-1.762 -0.12,-4.16 -0.51,-10.215 -1.14,-20.301 -1.64,-30.133 -0.26,-6.18 -0.38,-12.106 -0.38,-18.16 0,-5.797 0.12,-11.848 0,-17.774 0,-1.64 0,-3.152 0,-4.793 0,-0.125 -0.13,-1.132 -0.26,-3.402 0,-2.016 0,-4.164 0,-6.434 -0.12,-5.546 0.26,-9.074 0.76,-10.211 0.51,-1.261 1.26,-1.89 2.65,-1.89 1.01,0 2.52,0.504 4.41,1.387 2.02,0.882 3.03,0.882 3.15,0 0.13,-1.133 -0.12,-1.895 -0.25,-2.27 -0.25,-0.633 -0.88,-1.133 -1.76,-1.516 -0.51,-0.25 -2.14,-1.004 -5.05,-2.14 -2.89,-1.262 -5.42,-2.395 -7.81,-3.656 -0.76,-0.508 -2.27,-1.387 -4.29,-2.903 -2.15,-1.387 -3.91,-2.519 -5.04,-3.152 -1.27,-0.629 -2.15,-0.879 -2.65,-0.754 -0.51,0 -0.88,0.504 -0.88,1.258 -0.13,1.261 1.26,3.152 4.15,5.551 0.77,0.628 1.39,1.136 1.9,1.636 1.26,1.012 1.89,4.918 1.89,11.852 0,0.633 0,1.008 0,1.262 z m 50.18,43.371 c -5.3,-2.145 -9.45,-1.004 -12.74,3.281 -3.27,4.41 -5.04,11.348 -4.78,21.055 0.37,9.078 2.77,17.648 6.93,25.847 4.03,7.942 8.7,12.735 14.12,14.5 6.94,2.27 12.61,0.504 16.64,-5.422 4.16,-5.925 5.43,-15.132 5.3,-26.98 -0.13,-9.332 -0.76,-18.66 -3.15,-27.992 -2.4,-9.457 -5.93,-18.157 -10.09,-26.223 -4.41,-8.578 -8.82,-16.02 -13.36,-22.32 -4.67,-6.43 -8.45,-10.336 -11.73,-11.852 -0.38,-0.25 -0.76,-0.379 -0.88,-0.25 -0.13,0.125 -0.25,0.504 -0.38,1.133 -0.25,1.637 1.13,4.289 4.16,7.941 3.03,3.657 5.42,7.063 7.44,10.219 5.42,8.57 9.83,19.031 13.24,31.391 1.64,6.179 3.03,12.609 3.65,19.039 0.63,6.304 0.76,12.984 1.01,19.922 0.13,8.449 -0.5,15.382 -2.9,20.929 -2.4,5.422 -5.3,7.688 -8.32,6.555 -3.4,-1.008 -6.05,-4.664 -8.07,-10.59 -2.14,-6.054 -3.53,-13.742 -3.91,-23.074 -0.25,-7.188 0.76,-12.609 2.78,-16.391 2.01,-3.656 4.41,-4.914 7.18,-3.906 0.89,0.375 1.77,0.879 2.9,1.508 1.14,0.508 1.77,0.887 1.89,1.012 0.64,0.125 1.01,0.25 1.39,0 0.12,-0.125 0.38,-0.504 0.38,-1.012 0,-1.258 -0.88,-2.77 -2.52,-4.41 -1.64,-1.637 -3.66,-2.899 -6.18,-3.91 z m -269.69,-162.52 c -0.13,-3.023 -0.26,-6.051 -0.26,-9.078 -0.12,-1.008 -0.12,-1.641 -0.37,-2.141 -0.13,-0.507 -0.38,-0.882 -0.88,-1.136 -0.89,-0.629 -1.39,-0.379 -1.77,0.754 0,0.253 0,0.382 0,0.382 -0.76,3.153 -1.89,5.039 -3.41,6.051 -1.51,0.883 -3.27,0.758 -5.42,-0.633 -1.89,-1.133 -3.4,-3.023 -4.79,-5.547 -1.26,-2.394 -1.89,-4.918 -2.02,-7.437 -0.12,-3.531 2.53,-5.805 7.95,-6.559 0.88,0 1.51,-0.125 2.02,-0.125 4.28,-0.504 7.06,-1.636 8.32,-3.656 1.26,-2.016 1.76,-5.547 1.89,-10.465 0.12,-6.808 -0.89,-12.984 -3.53,-18.785 -2.53,-5.797 -6.43,-10.719 -12.1,-14.883 -4.42,-3.148 -7.69,-4.535 -9.71,-4.41 -2.02,0.125 -3.28,2.016 -3.66,5.547 -0.38,4.039 -0.38,7.062 -0.13,8.953 0.13,2.02 0.63,3.152 1.26,3.531 0.63,0.504 1.52,-0.504 2.15,-3.027 0.38,-1.008 0.63,-1.891 0.88,-2.395 1.01,-1.89 2.4,-3.023 4.29,-3.402 1.76,-0.379 3.78,0.25 5.8,1.766 2.14,1.508 3.78,3.781 5.04,6.933 1.26,3.024 1.64,6.176 1.51,9.203 -0.12,3.782 -2.39,5.926 -7.06,6.555 -0.37,0.125 -0.63,0.125 -0.88,0.125 -5.04,0.887 -8.58,2.274 -10.09,4.289 -1.51,1.891 -2.14,4.793 -2.01,8.828 0.12,6.051 1.76,12.102 4.92,17.903 3.14,5.797 7.06,10.211 11.47,12.988 3.53,2.266 6.3,3.527 8.07,3.656 1.76,0 2.65,-1.261 2.52,-3.785 z m 152.31,136.047 v -4.668 c -1.89,-1.891 -3.79,-4.789 -5.43,-8.824 -2.39,-5.422 -3.53,-10.215 -3.53,-14.625 0,-1.137 0.26,-2.02 0.63,-2.27 0.38,-0.383 1.14,-0.254 1.9,0.25 2.52,1.387 4.66,2.774 6.43,4.035 v -5.421 c -2.27,-1.262 -4.54,-2.524 -6.81,-3.782 -0.89,-0.633 -1.39,-1.515 -1.89,-2.898 -0.51,-1.262 -0.76,-2.903 -0.76,-4.543 -0.13,-6.934 1.26,-11.977 3.91,-15.254 1.76,-2.02 3.53,-3.027 5.55,-3.027 V 750.07 c -2.15,-1.132 -4.41,-1.765 -6.56,-1.64 -2.14,0.254 -4.28,1.136 -6.18,2.648 -2.27,1.891 -4.03,4.539 -5.17,8.195 -1.13,3.657 -1.64,8.325 -1.64,13.872 0.13,10.964 2.15,21.683 6.18,31.898 3.78,9.203 8.33,15.637 13.37,19.293 z M 1054.56,653.871 c 0,4.789 0,9.828 0,14.75 0.12,5.043 0.38,10.082 0.5,15.129 0.13,0.254 0.13,0.504 0.13,0.758 0,2.265 -0.13,4.035 -0.38,5.043 -0.25,1.133 -0.88,1.64 -1.51,1.64 -0.25,-0.128 -0.63,-0.253 -1.14,-0.507 -1.38,-0.629 -2.14,-0.25 -2.14,1.007 0,1.012 0.76,2.524 2.27,4.289 0.5,0.758 1.14,1.387 1.51,1.891 3.41,4.668 6.56,9.707 9.46,15.133 0.63,1.258 1.01,2.016 1.13,2.144 0.51,0.375 0.76,0.375 0.88,0.25 0.13,-0.25 0.13,-0.882 0.13,-2.14 0,-0.129 -0.13,-0.887 -0.13,-2.024 -0.5,-5.671 -0.75,-11.089 -1,-16.515 -0.13,-5.672 -0.25,-11.473 -0.25,-17.149 -0.13,-5.672 -0.13,-11.218 0,-16.765 0.12,-2.903 0.5,-4.414 0.88,-5.047 0.25,-0.5 0.75,-0.629 1.64,-0.375 0.12,0 0.12,0 0.37,0.125 0.89,0.379 1.52,0.758 1.89,1.012 0.26,0.125 0.76,0.25 1.27,0.628 0.75,0.504 1.26,0.25 1.38,-1.136 0,-0.629 0,-1.258 -0.25,-2.016 -0.25,-0.633 -0.75,-1.133 -1.26,-1.516 -0.12,-0.125 -0.25,-0.25 -0.63,-0.378 -0.38,-0.25 -0.63,-0.5 -0.76,-0.629 -0.37,-0.254 -1.01,-0.754 -1.89,-1.387 -1.01,-0.629 -1.64,-1.262 -2.14,-1.762 -2.39,-1.894 -4.04,-3.406 -5.17,-4.418 -1.14,-0.883 -2.02,-1.636 -2.9,-2.394 -0.88,-0.883 -1.77,-1.891 -2.65,-2.645 -0.88,-0.762 -1.76,-1.515 -2.52,-2.144 -0.75,-0.633 -1.39,-0.887 -1.76,-1.008 -0.38,0 -0.64,0.25 -0.64,0.754 -0.12,0.629 0,1.261 0.26,1.89 0.25,0.633 1,1.766 2.14,3.282 0.25,0.375 0.51,0.504 0.63,0.882 0.25,0.25 0.5,0.754 0.76,1.262 1.01,1.254 1.64,2.266 1.89,3.278 0.25,0.878 0.38,2.394 0.25,4.285 -0.13,0.754 -0.13,1.636 -0.25,2.523 z m 2.52,82.707 c 0,2.774 0.63,5.426 1.64,7.82 0.88,2.27 2.27,4.286 3.91,5.672 1.76,1.387 3.02,1.766 4.03,1.008 0.88,-0.633 1.39,-2.265 1.39,-5.043 -0.12,-2.898 -0.63,-5.547 -1.64,-7.941 -1.14,-2.524 -2.52,-4.414 -4.28,-5.801 -1.52,-1.387 -2.78,-1.641 -3.79,-0.758 -0.88,0.758 -1.26,2.524 -1.26,5.043 z m 23.45,-56.23 c 0,8.195 0.13,16.39 0.38,24.711 0,0.504 0,1.136 0,1.765 0.13,2.649 -0.63,4.035 -2.14,4.16 v 0 c -0.63,0 -1.01,0 -1.14,0.125 -0.25,0.254 -0.25,0.504 -0.25,1.008 0,0.887 1.01,3.031 2.77,6.055 1.26,2.144 2.27,3.781 3.03,5.172 1.39,2.644 2.9,5.922 4.41,9.578 1.52,3.781 2.52,5.805 2.78,6.055 0.37,0.25 0.5,0.25 0.63,0 0.25,-0.379 0.38,-0.883 0.38,-1.641 0,-0.633 -0.25,-1.641 -0.38,-3.152 0,-1.512 -0.13,-2.649 -0.13,-3.407 0,-1.132 0,-1.886 0.13,-2.144 0,-0.25 0.13,-0.5 0.38,-0.25 0.5,0.379 1.13,1.64 2.14,3.91 1.01,2.145 1.89,3.781 2.52,5.043 1.64,3.027 3.53,5.93 5.3,8.445 1.89,2.399 3.78,4.664 5.67,6.434 4.54,4.41 7.69,5.547 9.58,3.402 1.89,-2.144 2.78,-7.566 2.65,-16.769 0,-0.25 -0.12,-0.5 -0.12,-0.754 -0.13,-10.086 -0.39,-20.051 -0.26,-30.008 0,-0.508 0,-1.008 0.13,-1.512 0,-0.379 0,-0.886 0,-1.261 0.13,-0.758 0.25,-1.262 0.38,-1.387 0.25,-0.125 0.63,-0.125 1.26,0 0.5,0.125 0.88,0.504 1.38,0.629 0.38,0.25 0.76,0.504 1.26,0.758 1.01,0.503 1.77,0.628 2.02,0.503 0.38,-0.253 0.51,-0.757 0.63,-1.515 0,-0.754 0,-1.512 -0.12,-2.016 -0.13,-0.379 -0.51,-0.883 -0.89,-1.262 -0.37,-0.253 -0.75,-0.628 -1.13,-0.878 -0.76,-0.383 -2.14,-1.137 -3.91,-2.653 -1.76,-1.262 -4.16,-3.277 -7.19,-5.922 -0.25,-0.257 -0.75,-0.757 -1.38,-1.39 -0.64,-0.629 -1.14,-1.133 -1.51,-1.383 -0.26,-0.379 -0.76,-1.008 -1.52,-1.895 -0.63,-0.882 -1.26,-1.636 -1.64,-2.019 -0.75,-0.629 -1.38,-0.879 -1.89,-1.004 -0.63,0 -0.88,0.375 -1.01,1.004 0,0.758 0,1.515 0.38,2.273 0.25,0.754 1.14,1.766 2.27,3.153 0.63,0.629 1.14,1.261 1.51,1.89 0.51,0.754 0.76,1.262 1.01,1.891 0.25,1.008 0.5,3.023 0.63,5.797 0.13,3.027 0.26,6.687 0.26,11.222 -0.13,6.934 0.12,13.868 0.25,20.93 0,4.539 -0.76,7.313 -2.4,8.199 -1.39,1.004 -3.78,0 -6.81,-2.773 -1.76,-1.77 -3.53,-3.914 -5.17,-6.309 -1.51,-2.523 -2.89,-5.168 -4.03,-7.941 -0.38,-1.133 -0.76,-2.395 -0.89,-3.781 -0.12,-1.391 -0.25,-4.036 -0.37,-7.821 -0.13,-9.074 -0.26,-18.152 -0.26,-26.98 0,-0.629 0,-1.262 0.13,-1.766 0.13,-2.14 0.38,-3.531 0.89,-4.164 0.5,-0.754 1.13,-0.625 2.14,-0.246 0.37,0.125 0.75,0.125 1,0.246 0.51,0.258 0.89,0.508 1.27,0.762 1.13,0.629 1.89,0.883 2.26,0.883 0.26,-0.125 0.38,-0.383 0.51,-0.883 0,-0.633 -0.13,-1.133 -0.51,-1.895 -0.37,-0.629 -0.88,-1.382 -1.63,-2.015 -1.26,-1.137 -2.9,-2.395 -5.04,-3.907 -2.15,-1.386 -3.54,-2.523 -4.42,-3.406 -0.63,-0.504 -1.76,-1.512 -3.15,-3.152 -0.13,-0.129 -0.25,-0.129 -0.25,-0.129 -0.51,-0.5 -1.39,-1.383 -2.52,-2.645 -1.14,-1.261 -2.15,-2.273 -2.91,-3.027 -0.37,-0.25 -0.75,-0.379 -1.13,-0.379 -0.25,0.129 -0.5,0.504 -0.5,1.012 0,0.504 0.25,1.512 0.75,3.023 0.25,0.754 0.51,1.262 0.51,1.645 0.5,0.371 0.88,0.754 1.26,1.383 0.37,0.632 0.75,1.261 1.13,2.14 0.38,1.012 0.51,2.399 0.63,4.039 0.13,1.762 0,4.411 0,8.196 z m 70.11,39.461 c -5.93,-4.536 -10.97,-5.547 -15.14,-2.52 -4.03,3.027 -6.05,9.457 -5.92,19.414 0.13,10.848 2.52,22.067 7.19,33.414 4.66,11.473 10.59,20.426 17.52,26.227 4.67,3.906 8.19,5.547 10.34,5.168 2.14,-0.254 3.16,-2.77 3.03,-7.188 0,-2.015 -0.38,-3.781 -1.01,-5.418 -0.76,-1.515 -1.64,-2.773 -2.9,-3.785 -0.76,-0.504 -1.64,-0.629 -2.53,-0.129 -0.75,0.508 -2.14,1.895 -3.9,4.418 -0.76,1.262 -1.52,1.891 -2.27,1.891 -0.76,0 -1.64,-0.508 -2.78,-1.516 -3.4,-2.898 -6.43,-8.32 -8.82,-16.14 -2.4,-7.688 -3.66,-16.137 -3.66,-24.961 -0.12,-8.321 1.26,-13.871 4.16,-16.645 3.03,-2.773 6.81,-2.269 11.23,1.137 1.76,1.387 3.78,3.781 6.04,7.062 2.15,3.274 3.54,5.043 4.04,5.293 0.25,0.25 0.5,0.25 0.63,-0.125 0.25,-0.379 0.38,-0.883 0.5,-1.769 0.13,-2.016 -1.51,-5.672 -4.78,-11.09 -3.28,-5.297 -6.94,-9.586 -10.97,-12.738"
         style="fill:#fff200;fill-opacity:1;fill-rule:evenodd;stroke:none"
         id="path36" />
      <path
         d="m 416.832,564.98 v 25.469 c 11.598,13.867 28.746,24.336 31.52,41.735 -1.137,60.39 -2.645,125.199 -3.782,185.593 -9.203,4.164 -18.156,6.809 -27.738,8.7 v 28.367 l 8.699,-3.149 c 10.719,-3.785 20.676,-5.8 21.438,12.735 -0.508,42.488 -1.016,85.101 -1.516,127.593 0.379,46.527 -10.086,28.497 -19.922,9.457 -2.898,-8.195 -5.801,-16.261 -8.699,-24.335 v 97.085 c 3.531,6.81 7.188,13.24 11.219,19.54 0.758,18.28 -1.637,30.39 -7.942,44.64 -2.144,8.57 2.27,10.59 13.114,6.05 34.797,-24.97 59.507,4.66 97.461,16.77 37.066,15.63 40.597,-0.26 26.226,-12.36 -19.293,-17.4 -39.844,-31.9 -47.914,-60.14 0.883,-96.328 1.766,-192.781 2.652,-289.234 34.165,-15.004 52.575,-52.074 47.907,-121.164 -1.133,-12.863 -10.465,-13.371 -11.344,0 -4.793,42.992 -14.5,76.652 -36.563,87.117 -0.253,-37.695 -0.632,-75.519 -0.886,-113.219 13.621,-1.261 27.234,-4.035 40.98,-5.167 25.973,-6.309 25.973,-23.075 0,-24.461 -43.879,-6.309 -82.59,-25.344 -117.637,-53.211 -5.55,-4.661 -12.23,-5.922 -17.273,-4.411 z m 0,509.25 v -97.085 c -8.828,-25.09 -17.273,-50.18 -24.711,-75.899 -8.824,-19.168 -6.808,-32.281 6.426,-39.465 l 18.285,-6.937 v -28.367 c -3.91,0.628 -7.816,1.261 -11.98,1.765 5.546,-114.484 0.378,-207.152 -37.067,-222.539 v 71.742 c 5.547,0 10.086,25.469 10.086,56.739 0,31.394 -4.539,56.863 -10.086,56.863 v 160 c 1.262,-2.899 2.649,-5.801 3.91,-8.574 11.848,45.39 24.836,92.547 45.137,131.757 z m 0,-483.781 V 564.98 c -8.195,2.399 -12.23,11.727 -0.758,24.458 0.254,0.382 0.504,0.632 0.758,1.011 z m -49.047,360.598 v -160 c -5.672,0 -10.211,-25.469 -10.211,-56.863 0,-31.27 4.539,-56.739 10.211,-56.739 v -71.742 c -0.629,-0.125 -1.137,-0.375 -1.765,-0.629 -28.497,25.723 -35.809,91.285 -28.747,183.957 l -25.972,-6.179 v 23.832 c 27.613,4.539 39.211,8.695 34.926,28.113 -11.598,1.894 -23.204,2.019 -34.926,0.633 v 28.367 c 7.941,1.012 15.887,1.891 23.828,2.773 14.375,3.785 9.078,23.075 4.664,31.649 -7.188,17.648 -16.77,38.832 -28.492,56.23 V 1077 c 18.91,-41.98 37.195,-83.969 56.484,-125.953 z M 311.301,524.129 V 552.5 c 7.941,-1.641 16.894,-1.895 26.855,-1.387 20.047,0.754 21.938,-18.66 0,-24.211 -8.828,-2.144 -17.902,-1.89 -26.855,-2.773 z m -73.383,228.34 c -11.852,-7.063 -22.191,-15.004 -30.762,-23.328 v 39.086 c 9.957,7.058 21.055,12.609 33.16,16.39 -0.886,11.094 1.637,22.067 0.754,33.16 -11.726,-5.422 -23.074,-11.222 -33.914,-17.527 v 34.172 c 10.719,5.293 22.067,9.832 33.914,13.742 -0.25,68.84 -1.132,129.359 -1.382,198.076 -9.083,27.11 -20.43,45.77 -32.532,58 v 36.81 c 4.157,-2.39 8.067,-5.29 11.852,-8.82 10.461,-4.54 53.082,-6.43 75.648,13.11 10.719,6.18 13.364,2.65 7.817,-10.46 -2.899,-6.43 -5.801,-12.74 -8.7,-19.17 5.93,-12.86 11.852,-25.85 17.528,-38.71 V 954.449 c -9.457,14.125 -20.176,25.723 -32.028,30.512 -0.375,-36.938 -0.628,-73.879 -1.007,-110.699 -0.504,-9.832 0.757,-17.649 14.75,-12.86 6.054,0.754 12.23,1.641 18.285,2.395 V 835.43 c -10.215,-1.262 -20.551,-3.657 -30.766,-7.063 l -1.637,-26.73 c 12.481,2.015 23.325,3.531 32.403,5.047 v -23.832 l -32.403,-7.817 c 0.883,-64.805 1.762,-129.488 2.649,-194.297 2.769,-16.64 13.613,-25.09 29.754,-28.238 v -28.371 c -3.281,-0.379 -6.559,-0.883 -9.965,-1.637 -31.27,-4.289 -50.051,-22.695 -66.824,-40.222 -8.196,-7.063 -18.028,-10.719 -27.356,-11.852 v 29.379 c 15.633,7.183 29.375,20.047 30.637,37.066 -0.379,9.332 0.504,13.867 0.125,23.2 -11.473,2.898 -21.688,6.933 -30.762,11.726 v 28.871 c 8.446,-7.562 18.66,-14.746 30.637,-21.308 z m -30.762,-23.328 c -39.715,-38.961 -42.488,-89.774 0,-128.481 v -28.871 c -79.437,42.238 -65.437,150.039 0,196.438 z m 0,411.909 v -36.81 c -55.98,56.48 -127.9763,-25.34 -64.433,-58.51 13.621,-4.03 22.574,3.41 19.922,15.77 -27.61,-5.18 -33.411,17.9 -21.43,39.46 27.738,29.25 75.523,-20.43 50.558,-61.03 -18.66,-27.86 -50.812,-31.14 -74.39,-9.2 -78.926,73.76 25.094,148.91 89.773,110.32 z m 0,-306.628 C 139.07,801.637 93.5547,744.27 86.3672,684.129 V 650.84 c 3.6562,-30.762 18.1558,-61.149 45.2618,-88.383 11.476,-14.371 25.219,5.551 9.586,18.281 -75.3986,87.758 -23.453,167.567 65.941,219.512 z m 0,-334.625 v -29.379 c -11.226,-1.262 -21.683,1.133 -28.246,5.926 -20.043,18.281 -1.133,19.922 16.645,19.293 3.906,1.008 7.816,2.39 11.601,4.16"
         style="fill:#fff200;fill-opacity:1;fill-rule:evenodd;stroke:none"
         id="path38" />
      <path
         d="m 1467.36,1330.56 c 0.12,11.22 2.77,16.39 -9.84,16.39 -20.3,2.65 -29,20.55 -12.73,27.48 21.81,5.93 41.35,11.35 61.52,23.96 7.32,6.05 14.38,5.17 12.36,-7.19 -0.63,-8.57 -0.5,-16.26 -1.13,-24.84 2.39,0.39 11.98,2.15 12.86,8.58 5.55,41.61 41.48,84.1 67.45,44.13 9.58,-29 3.03,-55.61 -12.48,-82.84 -14.12,-17.27 -28.75,-10.46 -32.66,5.04 -3.53,19.42 -5.67,16.39 -17.52,9.34 -11.35,-7.95 -12.99,-30.01 -12.61,-41.36 -0.38,-72.75 -0.88,-132.39 -1.26,-205.14 1.51,-11.85 12.23,-13.61 20.93,-13.24 11.6,-1.64 13.74,-15.76 -6.43,-23.2 -25.34,-10.46 -49.05,-22.56 -70.98,-36.31 -19.55,-12.48 -29.38,3.91 -17.53,18.53 6.93,7.32 14.75,15.77 16.9,29.13 1.13,83.85 2.14,167.69 3.15,251.54"
         style="fill:#fff200;fill-opacity:1;fill-rule:evenodd;stroke:none"
         id="path40" />
      <path
         d="m 1732.76,1412.76 c 2.52,-23.2 18.41,-18.15 21.94,5.05 -2.9,24.33 -0.76,52.82 -1.26,77.79 -3.53,18.41 -19.3,1.13 -26.98,-17.02 -53.46,5.04 -79.31,-11.1 -96.58,-57.62 -11.6,-31.27 -14.25,-74.26 11.85,-97.97 29.5,-26.6 77.29,-29.63 84.98,-67.58 17.65,-86.12 -71.11,-123.56 -115.62,-120.53 -57.87,3.78 -7.06,129.23 59.51,113.47 23.96,-5.55 16.14,-64.81 -25.72,-63.92 -19.04,0.37 -19.54,-16.9 -3.15,-19.42 28.74,-4.54 77.29,12.48 76.03,72.75 -1.26,53.2 -49.05,55.85 -92.93,30.13 -41.1,-24.21 -76.91,-65.43 -68.08,-120.28 15.63,-96.7 213.96,-31.14 217.75,112.34 1,33.66 -7.06,65.56 -30.39,78.8 -36.44,20.55 -79.31,36.31 -80.32,65.82 -1.89,54.21 61.53,75.39 68.97,8.19"
         style="fill:#fff200;fill-opacity:1;fill-rule:evenodd;stroke:none"
         id="path42" />
      <path
         d="m 1600.37,1468.62 c -33.53,-0.38 -34.17,27.99 -23.82,45.39 8.44,14.5 39.84,17.27 45.76,-12.74 4.8,-23.07 -6.18,-67.45 -13.49,-68.84 -15.26,-2.77 1.01,35.56 -8.45,36.19"
         style="fill:#fff200;fill-opacity:1;fill-rule:evenodd;stroke:none"
         id="path44" />
      <path
         d="m 1504.68,953.82 -2.65,-154.707"
         style="fill:none;stroke:#231f20;stroke-width:6.9708;stroke-linecap:butt;stroke-linejoin:miter;stroke-miterlimit:2.6131;stroke-dasharray:none;stroke-opacity:1"
         id="path46" />
      <path
         d="m 1347.45,786.762 c 162.01,57.746 244.35,9.707 3.16,-63.293"
         style="fill:none;stroke:#231f20;stroke-width:6.9708;stroke-linecap:butt;stroke-linejoin:miter;stroke-miterlimit:2.6131;stroke-dasharray:none;stroke-opacity:1"
         id="path48" />
    </g>
  </g>
</svg>
