<?xml version="1.0" standalone="no"?>
<!DOCTYPE svg PUBLIC "-//W3C//DTD SVG 20010904//EN"
 "http://www.w3.org/TR/2001/REC-SVG-20010904/DTD/svg10.dtd">
<svg version="1.0" xmlns="http://www.w3.org/2000/svg"
 width="370.000000pt" height="312.000000pt" viewBox="0 0 370.000000 312.000000"
 preserveAspectRatio="xMidYMid meet">

<g transform="translate(0.000000,312.000000) scale(0.100000,-0.100000)"
fill="#000000" stroke="none">
<path d="M1791 2963 c-134 -382 -157 -443 -163 -443 -3 0 -64 72 -134 160 -70
88 -129 158 -132 156 -2 -2 -19 -73 -38 -157 -32 -145 -39 -168 -48 -158 -2 2
-76 94 -166 204 -176 217 -186 228 -178 205 11 -30 91 -570 86 -575 -3 -3 -97
49 -208 115 -112 66 -204 119 -206 117 -5 -4 117 -341 127 -351 6 -6 9 -4 9 6
0 19 27 24 167 34 86 5 107 4 128 -10 33 -22 57 -60 65 -104 6 -32 8 -25 15
44 7 81 8 82 37 88 17 3 55 6 85 6 l55 0 -8 -197 c-10 -232 -10 -261 -1 -270
22 -21 30 31 39 238 5 123 11 225 13 228 3 2 42 6 87 9 l81 5 -6 -244 c-8
-321 -23 -370 -129 -423 -50 -25 -51 -25 -17 -24 97 3 179 -74 214 -200 18
-65 18 -24 0 78 -23 131 -29 121 73 118 l87 -3 15 -150 c15 -147 16 -149 23
-85 3 36 9 105 13 153 l7 88 101 -3 101 -3 10 -148 c6 -82 13 -145 18 -141 4
4 7 21 7 38 0 16 5 81 11 143 l12 113 89 0 89 0 -6 -32 c-3 -18 -28 -176 -55
-352 -28 -175 -53 -322 -56 -327 -3 -5 -48 -9 -100 -9 -82 0 -94 2 -95 18 -4
74 -27 291 -28 267 -2 -16 -8 -86 -14 -155 l-12 -125 -97 -3 c-94 -3 -98 -2
-103 20 -2 13 -16 100 -30 193 -14 94 -27 177 -29 185 -2 8 -3 -32 -3 -90 0
-163 -34 -254 -114 -307 -59 -39 -139 -39 -198 0 -74 49 -124 152 -138 282
l-6 59 -14 -39 c-24 -70 -84 -115 -154 -115 l-32 0 7 -53 c3 -28 9 -80 13
-114 l6 -63 -49 -1 c-27 0 -57 -4 -68 -8 -11 -4 -53 -81 -111 -201 -51 -107
-92 -197 -90 -198 2 -2 96 67 210 153 114 86 209 154 212 151 5 -4 40 -148 88
-355 6 -22 15 -14 110 85 69 72 107 105 112 97 4 -6 35 -122 67 -257 33 -135
62 -246 65 -246 3 0 62 116 131 258 l126 257 111 -147 110 -147 61 162 c33 89
64 162 69 163 4 2 98 -107 208 -241 110 -134 201 -242 203 -241 1 2 -15 138
-38 301 -22 164 -39 300 -37 301 2 2 96 -62 210 -141 114 -80 209 -145 211
-145 2 0 -18 78 -44 173 -30 112 -43 173 -35 175 6 1 122 -21 258 -51 136 -30
243 -49 239 -43 -5 6 -79 100 -164 208 -150 190 -156 195 -162 166 -3 -17 -6
-50 -6 -73 0 -23 -3 -70 -6 -104 l-7 -62 -81 7 c-45 4 -84 12 -88 17 -4 6 -4
57 -1 113 4 73 3 103 -6 109 -7 4 -15 5 -18 2 -4 -4 -32 -189 -33 -221 0 -9
-161 2 -172 13 -6 5 66 700 74 705 2 2 70 -3 152 -11 167 -15 200 -27 229 -83
15 -28 17 -50 14 -106 -5 -75 -23 -122 -63 -164 -22 -24 -22 -26 -6 -46 l17
-22 188 31 c103 16 187 33 187 36 -1 3 -61 60 -135 126 -74 66 -131 123 -127
127 4 3 122 55 262 113 140 59 270 114 289 122 18 8 31 16 28 19 -4 4 -673
234 -682 234 -2 0 -1 -28 2 -62 l6 -61 -72 7 c-72 6 -72 6 -65 -16 9 -31 3
-28 83 -37 39 -4 72 -9 74 -12 3 -2 8 -46 11 -96 l8 -93 -39 0 c-47 0 -293 26
-297 31 -4 5 -37 561 -36 617 0 27 4 42 13 42 37 -1 288 -28 292 -31 2 -2 7
-44 11 -93 l7 -88 -72 7 c-67 7 -71 6 -71 -13 0 -18 8 -21 58 -27 31 -3 64
-10 73 -14 11 -7 50 20 152 103 75 61 136 113 137 116 0 3 -90 13 -201 22
-110 9 -203 19 -206 22 -3 3 16 56 42 118 143 337 185 441 182 444 -1 2 -111
-72 -242 -165 -132 -92 -243 -166 -246 -165 -3 2 -16 67 -29 145 -22 136 -24
141 -40 122 -77 -96 -175 -202 -181 -196 -3 5 -28 81 -54 171 -26 89 -49 162
-51 162 -2 0 -58 -82 -125 -182 -138 -208 -128 -193 -134 -187 -2 3 -31 119
-65 259 -33 139 -62 255 -64 257 -2 2 -22 -49 -45 -114z m600 -484 c17 -33 -4
-71 -37 -67 -15 2 -33 12 -40 23 -12 18 -11 24 2 43 20 28 60 29 75 1z m-791
-6 c0 -5 -9 -30 -19 -58 -13 -36 -25 -51 -40 -53 l-21 -3 21 52 c11 29 23 57
25 61 6 10 34 11 34 1z m520 -3 c0 -5 -8 -10 -17 -10 -13 0 -14 -3 -5 -8 20
-13 -9 -86 -36 -90 l-21 -3 22 60 c15 43 27 61 40 61 9 0 17 -4 17 -10z m53
-13 c3 -7 -1 -21 -9 -32 -8 -10 -14 -29 -14 -42 0 -18 -6 -23 -26 -23 -20 0
-25 4 -20 16 3 9 9 28 12 42 10 41 46 66 57 39z m-643 -22 c0 -21 -30 -31 -41
-14 -8 12 -11 12 -19 -1 -15 -23 -13 -47 2 -32 13 13 48 16 48 4 0 -19 -27
-32 -68 -32 -38 0 -43 2 -37 18 4 9 12 29 17 45 9 24 15 27 54 27 33 0 44 -4
44 -15z m170 6 c0 -5 -7 -25 -15 -45 -14 -34 -18 -36 -61 -36 -42 0 -45 1 -38
23 20 66 21 67 69 67 25 0 45 -4 45 -9z m104 -13 c-20 -67 -21 -68 -69 -68
-25 0 -45 4 -45 9 0 26 15 41 40 41 16 0 32 4 35 10 4 6 -6 7 -25 4 -17 -4
-30 -2 -30 3 0 18 13 23 57 23 41 0 44 -2 37 -22z m116 12 c0 -30 -31 -80 -49
-80 -19 0 -19 2 -5 36 12 28 12 35 2 32 -7 -3 -17 -19 -22 -36 -6 -22 -15 -32
-28 -32 -15 0 -18 5 -12 23 20 66 21 67 69 67 25 0 45 -5 45 -10z m140 2 c0
-5 -11 -18 -25 -30 -14 -12 -25 -29 -25 -37 0 -8 -9 -15 -21 -15 -17 0 -19 4
-13 23 19 62 23 67 54 67 16 0 30 -4 30 -8z m220 -1 c0 -24 -14 -41 -35 -41
-13 0 -27 -5 -30 -10 -4 -7 3 -8 20 -4 21 5 27 4 23 -7 -4 -13 -98 -27 -98
-15 0 3 7 24 16 46 15 38 18 40 60 40 24 0 44 -4 44 -9z m-312 -33 c-5 -13
-26 -18 -41 -10 -13 6 4 22 24 22 12 0 19 -5 17 -12z m-113 -112 c12 -8 30
-31 40 -51 24 -53 18 -169 -11 -210 -21 -28 -21 -29 -3 -54 14 -20 23 -62 34
-170 8 -79 15 -145 15 -147 0 -2 -40 -4 -89 -4 l-89 0 -7 68 c-13 142 -17 162
-31 162 -11 0 -14 -23 -14 -114 l0 -113 -37 -7 c-21 -3 -62 -6 -91 -6 l-54 0
7 298 c3 163 8 311 11 329 l5 32 87 4 c121 6 202 -1 227 -17z m377 -2 c33 -17
63 -58 76 -104 9 -31 10 -26 11 43 l1 78 83 -7 c45 -3 84 -8 86 -10 5 -4 20
-266 21 -365 l0 -86 71 -6 c39 -3 73 -7 74 -9 2 -2 7 -47 11 -102 l7 -98 -109
6 c-60 4 -134 9 -165 12 l-56 6 -6 126 c-4 70 -7 163 -8 207 l-1 80 -12 -50
c-23 -93 -71 -135 -155 -135 l-41 0 0 -110 0 -110 -90 0 -90 0 0 331 0 331
133 -7 c78 -4 143 -13 159 -21z m221 -690 l129 -6 -7 -97 c-4 -53 -9 -99 -12
-103 -2 -5 -40 -8 -84 -8 -77 0 -79 -1 -79 -25 0 -23 3 -24 73 -27 l72 -3 -2
-35 c-1 -19 -5 -66 -8 -103 l-7 -69 -74 7 -74 7 0 -25 c0 -30 20 -37 104 -37
l59 0 -8 -92 c-4 -51 -8 -95 -10 -98 -4 -6 -326 8 -332 14 -5 4 22 525 33 647
l6 66 46 -3 c26 -2 105 -6 175 -10z m601 -673 c25 -28 17 -64 -18 -76 -24 -8
-31 -6 -47 14 -24 29 -24 36 1 61 25 25 42 25 64 1z m-1500 -87 c18 -18 20
-30 6 -39 -6 -4 -5 -13 2 -24 18 -29 3 -48 -39 -53 -21 -3 -39 -5 -40 -4 -2 1
-5 116 -4 129 2 13 59 7 75 -9z m162 -36 c1 -27 5 -55 8 -64 4 -10 1 -14 -6
-12 -7 3 -15 15 -18 29 -4 15 -14 25 -28 27 -19 3 -22 -1 -22 -27 0 -17 -4
-31 -10 -31 -6 0 -10 29 -10 66 l0 65 43 -3 42 -3 1 -47z m158 -9 c26 -60 27
-91 2 -56 -16 21 -72 23 -80 2 -3 -8 -10 -15 -15 -15 -5 0 2 29 17 65 15 36
32 65 38 65 6 0 23 -28 38 -61z m136 14 l30 -48 0 48 c0 26 5 47 10 47 6 0 10
-28 10 -65 0 -82 -16 -85 -56 -12 l-29 52 -3 -52 c-4 -76 -22 -66 -22 12 0 81
17 86 60 18z m210 27 c24 -24 26 -57 4 -88 -11 -16 -25 -22 -55 -22 l-39 0 0
65 0 65 35 0 c22 0 43 -8 55 -20z"/>
<path d="M2367 2458 c3 -23 1 -29 -5 -19 -7 10 -11 10 -17 1 -9 -15 0 -24 20
-16 23 8 30 35 13 52 -13 13 -14 11 -11 -18z"/>
<path d="M2320 2455 c0 -14 2 -25 4 -25 2 0 6 11 8 25 3 14 1 25 -3 25 -5 0
-9 -11 -9 -25z"/>
<path d="M1640 2419 c0 -5 5 -7 10 -4 6 3 10 8 10 11 0 2 -4 4 -10 4 -5 0 -10
-5 -10 -11z"/>
<path d="M1735 2390 c-3 -5 -2 -10 4 -10 5 0 13 5 16 10 3 6 2 10 -4 10 -5 0
-13 -4 -16 -10z"/>
<path d="M2220 2419 c0 -5 5 -7 10 -4 6 3 10 8 10 11 0 2 -4 4 -10 4 -5 0 -10
-5 -10 -11z"/>
<path d="M1550 2248 c0 -29 -2 -118 -5 -198 -2 -80 -1 -132 3 -116 8 35 8 35
176 37 114 1 131 -1 143 -17 16 -21 17 -11 3 17 -6 10 -17 19 -25 19 -21 0
-19 17 4 29 42 23 62 125 40 204 -18 65 -50 77 -206 77 l-133 0 0 -52z m192
-95 c35 -31 12 -103 -34 -103 -15 0 -18 8 -18 60 0 65 14 77 52 43z"/>
<path d="M1700 2106 c0 -47 9 -57 29 -32 18 21 10 70 -11 74 -15 3 -18 -4 -18
-42z"/>
<path d="M1951 2178 c2 -124 14 -302 17 -238 l2 35 150 -3 c82 -2 150 -7 150
-12 0 -5 -12 -18 -26 -29 -15 -12 -22 -21 -16 -21 22 0 61 62 72 115 23 110
-12 223 -80 257 -27 14 -61 18 -152 18 l-118 0 1 -122z m192 -21 c10 -6 20
-28 23 -48 5 -29 2 -41 -15 -58 -38 -38 -51 -28 -51 42 0 79 8 90 43 64z"/>
<path d="M2113 2100 c2 -39 5 -50 17 -48 23 5 21 92 -2 96 -14 3 -16 -5 -15
-48z"/>
<path d="M2334 2233 c3 -32 9 -116 13 -188 4 -71 9 -118 11 -102 3 26 6 27 62
27 56 0 59 -1 64 -27 2 -16 3 52 1 150 -3 98 -7 182 -10 188 -4 5 -38 9 -76 9
l-70 0 5 -57z"/>
<path d="M2521 1304 c0 -11 3 -14 6 -6 3 7 2 16 -1 19 -3 4 -6 -2 -5 -13z"/>
<path d="M2227 1250 c-6 -31 -27 -333 -23 -336 0 -1 69 -5 153 -9 l151 -7 6
29 c3 15 6 53 8 83 l3 55 -77 3 -78 3 0 39 0 40 75 0 75 0 -1 68 c-1 52 -3 60
-9 37 -4 -16 -8 -23 -9 -15 -1 13 -21 15 -130 12 -118 -3 -130 -1 -134 15 -2
11 -6 5 -10 -17z"/>
<path d="M3002 928 c-7 -7 -11 -23 -11 -37 1 -25 2 -25 8 3 3 16 12 31 20 34
9 3 11 0 6 -8 -5 -9 -4 -11 3 -6 8 5 12 -2 11 -21 0 -15 -3 -22 -6 -15 -7 17
-23 15 -23 -3 0 -18 21 -20 38 -3 18 18 14 46 -7 58 -24 13 -24 13 -39 -2z"/>
<path d="M1500 820 c0 -23 22 -27 39 -7 13 16 5 27 -21 27 -11 0 -18 -7 -18
-20z"/>
<path d="M1500 764 c0 -17 5 -24 20 -24 11 0 23 7 27 15 7 19 2 24 -26 30 -17
3 -21 -1 -21 -21z"/>
<path d="M1650 821 c0 -14 6 -17 25 -13 14 2 25 11 25 18 0 8 -10 14 -25 14
-18 0 -25 -5 -25 -19z"/>
<path d="M1823 810 c-11 -28 -10 -30 12 -30 22 0 23 2 14 30 -6 17 -12 30 -13
30 -1 0 -7 -13 -13 -30z"/>
<path d="M2150 795 c0 -41 2 -45 25 -45 17 0 29 8 36 24 15 32 -4 66 -36 66
-23 0 -25 -4 -25 -45z"/>
<path d="M136 2342 c5 -5 125 -102 267 -216 141 -114 257 -210 257 -214 0 -4
-81 -48 -181 -97 -99 -50 -183 -93 -185 -96 -2 -4 52 -39 121 -79 69 -39 125
-75 125 -79 0 -3 -110 -92 -244 -196 -135 -105 -245 -193 -245 -197 -1 -4 148
-9 329 -10 l330 -3 -84 -132 c-47 -73 -81 -133 -78 -133 8 0 216 43 220 45 1
1 -19 140 -44 309 -25 169 -44 309 -42 311 8 8 287 27 311 22 57 -15 105 -81
135 -187 l10 -35 1 31 c3 88 62 192 125 220 l31 13 -30 1 c-53 0 -117 40 -145
90 -23 42 -25 53 -23 175 2 122 1 128 -12 91 -8 -22 -22 -51 -33 -65 -24 -34
-97 -71 -139 -71 -18 0 -33 -3 -33 -7 -2 -46 -20 -217 -23 -220 -3 -2 -43 -7
-91 -11 l-86 -8 0 31 c0 16 11 145 25 285 13 140 21 258 17 261 -7 7 -574 179
-588 179 -5 0 -4 -4 2 -8z"/>
<path d="M1413 2292 l-73 -3 0 -118 c0 -65 -2 -154 -5 -197 -2 -44 -1 -63 3
-44 l7 35 62 3 c57 3 62 1 65 -20 2 -13 8 59 12 160 5 101 7 184 5 185 -2 1
-37 1 -76 -1z"/>
<path d="M1204 2282 l-71 -3 -7 -106 c-8 -139 -8 -231 2 -217 4 7 33 14 65 15
l57 4 0 -39 c0 -22 2 -37 4 -35 5 5 28 381 24 383 -2 0 -35 0 -74 -2z"/>
<path d="M945 2264 c-11 -2 -59 -6 -106 -9 l-87 -7 -6 -41 c-11 -84 -17 -262
-9 -249 7 9 53 13 165 15 165 2 166 2 134 -43 -10 -13 -9 -13 6 -1 46 36 64
211 28 280 -18 36 -62 64 -94 60 -6 -1 -20 -3 -31 -5z m-7 -146 c30 -30 -4
-128 -44 -128 -15 0 -20 72 -8 118 7 24 33 29 52 10z"/>
<path d="M896 2063 c-7 -50 -4 -59 14 -48 17 10 31 55 25 76 -12 35 -32 20
-39 -28z"/>
<path d="M2665 2178 c12 -153 22 -255 24 -228 l1 25 129 -3 130 -3 4 -27 c3
-15 3 -5 2 22 -3 56 -13 66 -75 66 -58 0 -72 10 -68 46 l3 29 72 -4 72 -3 -6
68 c-3 38 -8 72 -12 76 -6 7 -189 28 -248 28 l-35 0 7 -92z"/>
<path d="M1334 1384 c-9 -35 2 -229 16 -276 13 -44 37 -50 46 -12 9 35 -3 228
-16 277 -13 43 -37 49 -46 11z"/>
<path d="M904 1328 c4 -35 9 -65 12 -67 2 -2 10 2 19 9 20 16 20 84 -1 104
-30 30 -37 19 -30 -46z"/>
<path d="M2777 1338 c-6 -60 -3 -67 21 -52 24 16 38 70 22 89 -24 29 -37 17
-43 -37z"/>
<path d="M1582 1350 c0 -14 2 -19 5 -12 2 6 2 18 0 25 -3 6 -5 1 -5 -13z"/>
<path d="M1981 1296 c-1 -48 -1 -48 -31 -44 -22 3 -30 0 -31 -11 -1 -9 -5 -5
-10 9 -9 25 -5 -93 8 -252 l6 -78 87 0 87 0 27 191 c15 105 25 194 22 197 -4
3 -6 -6 -6 -19 0 -24 -20 -65 -20 -42 0 6 -21 13 -50 15 l-50 3 0 -41 c0 -75
-15 -57 -26 33 -9 71 -11 79 -13 39z"/>
<path d="M884 1293 l4 -41 -69 -4 c-63 -3 -69 -1 -70 17 -1 16 -2 17 -6 3 -4
-15 42 -365 51 -393 4 -11 139 -5 151 6 5 5 -2 72 -21 187 -5 31 -4 32 31 32
45 0 94 21 122 51 23 26 43 89 42 129 l-1 25 -7 -25 c-6 -23 -12 -25 -80 -28
-66 -3 -73 -1 -67 14 6 17 6 17 -12 1 -26 -24 -51 -21 -56 6 -12 53 -15 59
-12 20z"/>
<path d="M1561 1293 l-1 -41 -65 -4 c-51 -2 -65 0 -69 12 -2 8 -4 -14 -5 -50
-2 -78 -15 -140 -32 -151 -34 -21 -54 22 -74 160 -7 47 -13 74 -14 59 -1 -28
-2 -28 -70 -28 l-70 0 -4 33 c-3 26 -4 24 -5 -13 -4 -111 38 -257 91 -317 69
-79 186 -86 259 -16 58 55 91 220 70 343 -10 54 -10 54 -11 13z"/>
<path d="M2752 1310 c0 -14 2 -19 5 -12 2 6 2 18 0 25 -3 6 -5 1 -5 -13z"/>
<path d="M971 1304 c0 -11 3 -14 6 -6 3 7 2 16 -1 19 -3 4 -6 -2 -5 -13z"/>
<path d="M2588 1175 c-30 -220 -33 -274 -17 -279 8 -3 42 -6 75 -8 l62 -4 13
108 c14 123 20 138 46 122 15 -9 18 -28 21 -122 3 -126 -3 -118 98 -124 l51
-3 7 104 c10 175 9 189 -19 215 -28 26 -31 36 -11 36 16 0 66 56 66 73 -1 7
-7 0 -15 -14 -13 -25 -19 -26 -96 -28 l-81 -2 28 26 29 26 -33 -23 c-27 -19
-50 -24 -117 -26 l-83 -4 -4 29 c-2 15 -11 -30 -20 -102z"/>
<path d="M1625 1235 c7 -72 34 -261 42 -292 5 -22 10 -23 88 -23 83 0 83 0 89
28 9 48 28 333 22 340 -3 3 -6 -4 -6 -16 0 -19 -6 -22 -39 -22 -22 0 -42 5
-44 13 -3 6 -6 -9 -6 -35 -1 -54 -20 -77 -22 -26 -1 41 -16 94 -18 63 -1 -18
-7 -20 -47 -17 -35 3 -48 9 -55 26 -6 14 -8 3 -4 -39z"/>
</g>
</svg>
