<?xml version="1.0" encoding="utf-8"?>
<!-- Generator: Adobe Illustrator 19.2.1, SVG Export Plug-In . SVG Version: 6.00 Build 0)  -->
<svg version="1.1" id="layer" xmlns="http://www.w3.org/2000/svg" xmlns:xlink="http://www.w3.org/1999/xlink" x="0px" y="0px"
	 viewBox="0 0 652 652" style="enable-background:new 0 0 652 652;" xml:space="preserve">
<style type="text/css">
	.st0{fill:#FFE400;}
	.st1{fill:#F6D800;}
	.st2{fill:url(#SVGID_1_);}
	.st3{clip-path:url(#SVGID_3_);fill:url(#SVGID_4_);}
	.st4{clip-path:url(#SVGID_3_);fill:url(#SVGID_5_);}
	.st5{clip-path:url(#SVGID_3_);fill:#9ED8F5;}
	.st6{fill:#231815;}
</style>
<g>
	<rect x="22.3" y="240.4" class="st0" width="600" height="160.2"/>
	<g>
		<path class="st1" d="M114.7,317.8c4.3-4.2,10.4-5.1,14.7-5.1c2.7,0,5.7,0.6,9.5,1.8l2.3,0.7l0-44.4l-1.3-0.4
			c-4.8-1.3-8.9-1.3-11.4-1.3c-9.6,0-16.3,4.6-22.1,9.9c0-2.6,0-7,0-7l-49,0l0,105.2l52.2,0l0-44.7
			C109.7,326,111.4,321.1,114.7,317.8z"/>
		<polygon class="st1" points="303.8,272.1 253.3,272.1 253.3,377.1 305.5,377.2 305.6,272.1 		"/>
		<path class="st1" d="M361.7,272l-51,0l0,105.2l52.2,0l0-39.2c0-18.4,1.4-26.5,15.1-26.5c2.1,0,3.8,0.6,5.1,1.9
			c2.8,2.8,3,7.7,3,9.1l0,54.6l52.2,0l0-28.2c4.7,3,10.2,4.7,16.1,4.7c16.6,0,30.1-13.5,30.1-30.1l0,0c0-8-3.1-15.6-8.8-21.3
			c-5.7-5.7-13.2-8.8-21.3-8.8c-6.3,0-12.1,1.9-17,5.3c-1.4-7.7-4.4-14-9.1-18.7c-7.1-7.1-18.2-10.8-32.9-10.8c0,0-0.1,0-0.1,0
			c-15.3,0-26.2,3.4-33.8,10.5C361.7,276.9,361.7,272,361.7,272z"/>
		<path class="st1" d="M458.1,377.2l58.7,0c0,0,10.7-20.8,13.3-26c2.3,5.2,11.6,26,11.6,26l66.5,0l-1.8-2.7c0,0-37-56.6-38.2-58.5
			c1.3-1.9,31.6-44,31.6-44l-57,0c0,0-5.3,16.9-7.2,23c-2.7-6-10.3-23-10.3-23l-66.5,0c0,0,35.1,48.9,36.5,50.8
			C494,324.8,458.1,377.2,458.1,377.2z"/>
		<path class="st1" d="M182.7,378.8c4.2-0.7,10.2-2.5,14.9-4.9c0,0.6,0,3.2,0,3.2l51,0l0-75.4c0-8.5-2.7-15.5-8-20.8
			c-7.6-7.6-20.8-11.7-38-11.7c-19.9,0-39.4,3.5-54.1,6.5l-1.3,0.3l-4.2,39.7l2.8-1.3c11.2-5.3,23.3-8.8,39.1-11.1
			c6.3-0.9,11.4-0.2,11.6,0.7c0.2,0.8-0.1,1.3-0.3,1.6c-1.7,2.4-9.2,3.6-17.1,4.8c-18.9,2.9-47.5,7.3-47.5,36.2c0,0,0,0,0,0
			c0,20.2,16.4,33.3,41.8,33.3c0,0,0.1,0,0.1,0C176.4,379.8,179.2,379.5,182.7,378.8z M186.1,348.9
			C186.1,348.9,186.1,348.9,186.1,348.9c-0.9,0-3.1-0.1-4.3-1.5c-0.7-0.8-1-2-0.9-3.5c0.4-4.6,11-7.3,16.6-8.7c0,2.7,0,8,0,9.2
			c-2.3,2-5.6,3.5-6.9,3.9C188.9,348.7,187.4,348.9,186.1,348.9z"/>
	</g>
	
		<linearGradient id="SVGID_1_" gradientUnits="userSpaceOnUse" x1="322.7566" y1="265.7982" x2="322.7566" y2="367.907" gradientTransform="matrix(1 0 0 1 1 1.001)">
		<stop  offset="0" style="stop-color:#009BE4"/>
		<stop  offset="2.281387e-002" style="stop-color:#0092D9"/>
		<stop  offset="9.251110e-002" style="stop-color:#007ABE"/>
		<stop  offset="0.1539" style="stop-color:#006BAD"/>
		<stop  offset="0.2" style="stop-color:#0066A7"/>
		<stop  offset="0.4364" style="stop-color:#003B60"/>
		<stop  offset="0.684" style="stop-color:#00111B"/>
		<stop  offset="0.8" style="stop-color:#000000"/>
	</linearGradient>
	<path class="st2" d="M134.3,265c-4.5-1.2-8.3-1.2-10.9-1.2c-10.3,0-17.1,5.5-23.9,12.2l0-9.4l-45.5,0l0,101.7l48.7,0l0-42.9
		c0-16.3,10.5-21.6,21.5-21.5c3.4,0,6.9,0.8,10.1,1.8L134.3,265z M249.8,368.3l48.7,0l0-101.5l-48.7,0L249.8,368.3z M390.3,264.1
		c-14.9,0-27.4,3-35.6,13.2l0-10.6l-47.5,0l0,101.7l48.7,0l0-37.4c0-17.3,1-28.3,16.9-28.3c8.4,0,9.9,8.6,9.9,12.8l0,52.9l48.7,0
		l0-66.7C431.3,272,412,264.1,390.3,264.1z M558.2,315.2l33-48.4l-52.3,0L525.6,293l-11.5-26.2l-57.1,0l35.2,49l-36,52.7l54.3,0
		l14.5-28.3l12.7,28.3l55.9,0L558.2,315.2z M197.3,264c-18.1,0-36,2.8-53.7,6.5l-3.7,35.3c12.5-5.9,25.1-9.1,39.6-11.3
		c3.2-0.5,12.9-1.4,13.5,2.1c3,14.6-64.8-0.6-64.8,42.9c0,19.5,16.3,31.5,40,31.5c3,0,5.9-0.4,8.8-0.9c4.9-0.9,12.3-3.1,16.9-6.1
		v4.3l47.5,0l0-73.6C241.6,273.6,223.9,264,197.3,264z M185.8,342.9c-1.7,0.4-3.4,0.7-5,0.7c-3.1,0-7.4-1.4-6.9-6.9
		c0.6-6.5,14.1-9.2,20.1-10.7l0,12.2C191.5,340.6,187.5,342.5,185.8,342.9z"/>
	<g>
		<g>
			<defs>
				<path id="SVGID_2_" d="M477.5,316.6c0,15.7-12.7,28.3-28.3,28.3c-15.7,0-28.3-12.7-28.3-28.3c0-15.6,12.7-28.3,28.3-28.3
					C464.8,288.2,477.5,300.9,477.5,316.6z"/>
			</defs>
			<clipPath id="SVGID_3_">
				<use xlink:href="#SVGID_2_"  style="overflow:visible;"/>
			</clipPath>
			
				<radialGradient id="SVGID_4_" cx="180.205" cy="988.4269" r="53.3421" gradientTransform="matrix(0.7651 2.000000e-004 -2.000000e-004 0.7651 321.1649 -452.7059)" gradientUnits="userSpaceOnUse">
				<stop  offset="0.1685" style="stop-color:#FFFFFF"/>
				<stop  offset="0.2282" style="stop-color:#BFE5F5"/>
				<stop  offset="0.3586" style="stop-color:#37AEE0"/>
				<stop  offset="0.4157" style="stop-color:#0098D8"/>
				<stop  offset="0.538" style="stop-color:#0084C6"/>
				<stop  offset="0.8453" style="stop-color:#00579E"/>
				<stop  offset="1" style="stop-color:#00458F"/>
			</radialGradient>
			<path class="st3" d="M477.5,316.6c0,15.7-12.7,28.3-28.3,28.3c-15.7,0-28.3-12.7-28.3-28.3c0-15.6,12.7-28.3,28.3-28.3
				C464.8,288.2,477.5,300.9,477.5,316.6z"/>
			
				<radialGradient id="SVGID_5_" cx="151.4812" cy="1029.4055" r="29.5382" gradientTransform="matrix(0.7651 2.000000e-004 -2.000000e-004 0.7651 321.1649 -452.7059)" gradientUnits="userSpaceOnUse">
				<stop  offset="6.741600e-002" style="stop-color:#FFFFFF"/>
				<stop  offset="0.8315" style="stop-color:#00AAE7"/>
			</radialGradient>
			<path class="st4" d="M456.4,339.8c-2.3,0.7-4.7,1.1-7.2,1.1c-12,0-21.9-8.7-23.9-20c0.6-0.3,4.2-1.2,6.6,0
				C433.5,344.1,456.4,339.8,456.4,339.8z"/>
			<path class="st5" d="M473.3,310.9c0,1.6-1.3,2.9-2.9,2.9c-1.6,0-2.9-1.3-2.9-2.9c0-1.6,1.3-2.9,2.9-2.9
				C472,308,473.3,309.3,473.3,310.9z"/>
			<use xlink:href="#SVGID_2_"  style="overflow:visible;fill:none;stroke:#231815;stroke-width:4.482;stroke-miterlimit:3.8637;"/>
		</g>
	</g>
	<g>
		<path class="st6" d="M588.5,322.4c-1.8,1.8-4,2.8-6.6,2.8c-2.6,0-4.8-0.9-6.6-2.7c-1.8-1.8-2.8-4-2.8-6.6c0-2.6,0.9-4.8,2.7-6.6
			c1.8-1.8,4-2.8,6.6-2.8c2.6,0,4.8,0.9,6.6,2.7c1.8,1.8,2.8,4,2.8,6.6C591.2,318.4,590.3,320.6,588.5,322.4z M576.1,310.3
			c-1.6,1.6-2.3,3.5-2.3,5.7c0,2.2,0.8,4.1,2.4,5.7c1.6,1.6,3.5,2.3,5.7,2.3c2.2,0,4.1-0.8,5.7-2.4c1.6-1.6,2.3-3.5,2.3-5.7
			c0-2.2-0.8-4.1-2.4-5.7c-1.6-1.6-3.5-2.3-5.7-2.3C579.5,307.9,577.6,308.7,576.1,310.3z M581.6,310.7c1.3,0,2.2,0.1,2.8,0.3
			c1.1,0.4,1.6,1.3,1.6,2.6c0,0.9-0.3,1.6-1,2c-0.4,0.2-0.8,0.4-1.5,0.5c0.8,0.1,1.4,0.4,1.8,1c0.4,0.5,0.6,1.1,0.6,1.6l0,0.8
			c0,0.2,0,0.5,0,0.8c0,0.3,0,0.4,0.1,0.5l0.1,0.1l-1.6,0c0,0,0-0.1,0-0.1c0,0,0-0.1,0-0.1l0-0.3l0-0.8c0-1.2-0.4-2-1-2.3
			c-0.4-0.2-1.1-0.3-2.1-0.3l-1.5,0l0,4l-1.7,0l-0.1-10.3L581.6,310.7z M583.6,312.3c-0.5-0.2-1.2-0.4-2.3-0.4l-1.6,0l0,3.7l1.7,0
			c0.8,0,1.4-0.1,1.8-0.2c0.7-0.3,1.1-0.8,1.1-1.6C584.3,313.1,584.1,312.6,583.6,312.3z"/>
	</g>
</g>
</svg>
